<?xml version="1.0" encoding="utf-8"?>
<!-- Generator: Adobe Illustrator 13.0.0, SVG Export Plug-In . SVG Version: 6.00 Build 14948)  -->
<!DOCTYPE svg PUBLIC "-//W3C//DTD SVG 1.1//EN" "http://www.w3.org/Graphics/SVG/1.1/DTD/svg11.dtd">
<svg version="1.1" id="Layer_1" xmlns="http://www.w3.org/2000/svg" xmlns:xlink="http://www.w3.org/1999/xlink" x="0px" y="0px"
	 width="731.479px" height="131.338px" viewBox="6.263 188.226 731.479 131.338"
	 enable-background="new 6.263 188.226 731.479 131.338" xml:space="preserve">
<g id="dark2_copy_3">
	<path stroke="#000000" d="M8.143,218.321l2.75,5.454l6.586,6.618l14.003,11.827l9.977,7.814l5.273,4.229l1.918,2.114l2.271,1.747
		l2.877,1.164l7.098,0.337l10.007-0.643l3.55,0.365l5.725,1.073l3.708,1.072l2.43,1.532l-0.768,1.776l-1.888,1.44l-2.143-0.551
		l-4.062-1.136l-3.355-0.796l-5.243-0.489L61.92,263.7l-3.069,0.643l-1.939,0.327l-2.644,0.532l-2.983-0.98l-8.822-6.455
		l-9.338-7.682l-6.267-5.353l-7.844-6.588l-5.659-5.058l-5.181-5.577l-1.245-3.892l-0.16-3.064l0.799-2.268L8.143,218.321z
		 M38.197,304.917l1.278,4.412l4.093,5.209l3.965,2.938l5.755,1.574c0,0,2.512-0.471,3.239-0.979
		c0.771,0.164,21.507-21.431,21.507-21.431l16.369-15.81l4.924-3.677l26.603,25.433l15.794,15.506l1.728,0.554l3.068,0.305
		l3.069-1.226l3.261-1.84l3.518-3.125l2.621-3.492l0.831-4.288l-0.959-4.414l-2.108,6.496l-4.858,4.965l-3.581,1.899l-2.688,0.795
		l-2.236-0.61l-5.371-3.984l-32.403-31.529l-2.487-2.154l-1.632-1.708l2.313-1.867l5.116-3.371l4.188-2.605l3.229-1.225l3.421-1.134
		l4.73-0.918l5.627-0.337l4.571,0.123l9.24,1.471l1.438-0.368l0.964-0.43l9.716-6.804l2.657-2.027l1.18-0.974l4.604-3.729
		l5.456-4.576l14.834-13.052l2.18-2.171l2.498-3.298l1.582-3.461l0.241-1.675c0,0-0.569-1.874-1.06-3.269
		c-0.137-0.027-2.445,4.227-2.769,4.719c-0.418,0.637-0.731,1.042-0.731,1.042l-1.875,1.88l-8.611,7.438l-7.503,6.046l-4.007,3.718
		l-9.25,7.354l-4.988,4.127l-2.088,1.838l-2.515,1.715l-4.689,0.654l-8.354-0.327l-7.419-0.246l-5.18,1.062l-3.049,0.449
		l-10.229,5.395l-8.44,7.148L85.01,285.758l-3.772,3.381l-13.27,12.901l-5.755,5.576l-4.926,4.934l-2.558,1.438l-2.525,0.644
		l-3.678-1.256l-3.261-2.146l-3.037-3.434l-3.325-5.334L38.197,304.917z"/>
</g>
<g id="paths_copy">
	<path d="M98.815,251.231c1.861-2.698,3.343-6.16,4.349-9.807c0.998-3.612,1.692-7.963,1.535-12.257
		c-0.058-1.521-0.674-3.322-0.513-4.902c0.354-3.479,5.091-8.596,7.417-11.03c6.32-6.616,12.055-11.063,18.927-17.65
		c2.856-2.737,6.722-7.197,10.999-7.354c4.843-0.181,8.677,4.221,11.511,6.617c7.563,6.4,13.229,9.565,22.51,13.729
		c3.854,1.729,9.811,3.071,12.531,5.393c2.267,1.934,4.471,6.256,3.581,10.541c-0.853,4.106-6.936,9.362-9.976,12.014
		c-10.273,8.953-18.938,16.461-30.438,24.759c-2.071,1.496-4.752,3.942-6.904,4.167c-2.245,0.231-5.379-1.12-8.441-1.473
		c-7.594-0.867-14.217-0.043-19.693,2.206c2.793,2.857,6.55,5.355,10.23,8.092c8.876,6.59,17.694,12.686,27.368,19.363
		c1.905,1.315,4.647,2.684,5.371,3.921c0.813,1.396,1.354,4.816,1.277,6.865c-0.193,5.189-3.398,8.855-7.417,11.769
		c-2.439,1.768-6.172,3.643-9.464,3.186c-4.145-0.573-8.891-7.395-11.511-10.049c-10.81-10.961-21.472-21.542-32.738-31.625
		c-2.344,1.193-4.023,3.213-5.884,4.902c-11.106,10.105-21.361,21.049-32.48,32.112c-1.729,1.72-3.999,4.289-5.885,4.658
		c-6.772,1.33-14.329-6.305-16.114-9.808c-1.643-3.222-1.771-8.729,0.258-12.013c0.848-1.371,3.101-2.793,5.115-4.167
		c12.785-8.722,26.229-17.813,37.854-27.21c-5.446-2.128-12.02-3.135-19.951-2.205c-2.964,0.348-5.901,1.621-8.185,1.472
		c-2.32-0.154-5.051-2.645-7.162-4.167c-11.188-8.083-20.456-15.887-30.693-25.003c-3.478-3.099-8.93-7.483-9.719-12.257
		c-1.325-8.017,4.968-11.464,10.999-13.482c11.591-3.884,21.162-10.016,29.414-17.16c3.095-2.679,7.056-6.78,12.788-4.412
		c3.204,1.323,6.727,5.466,9.464,8.089c5.986,5.738,11.715,10.433,17.646,16.915c2.854,3.119,6.74,6.674,7.162,10.053
		c0.19,1.533-0.431,3.196-0.513,4.656C92.948,237.557,96.103,244.784,98.815,251.231z M92.165,229.413
		c0.039-1.646,0.751-3.525,0.514-5.146c-0.216-1.466-1.739-3.659-3.069-5.394c-6.328-8.245-14.685-14.621-21.997-21.572
		c-3.118-2.965-6.313-6.71-9.975-7.599c-1.539-0.374-2.33-0.214-3.069,0c-5.24,1.511-9.629,7.271-14.322,10.541
		c-3.886,2.705-10.585,6.531-15.348,8.825c-3.689,1.775-9.753,3.114-13.044,5.146c-7.41,4.574,2.07,12.332,5.883,15.689
		c4.099,3.608,7.988,6.915,11.511,9.805c5.727,4.697,12.132,9.376,17.648,14.218c2.19,1.922,3.739,3.926,6.139,4.658
		c4.5,1.373,10.991-0.27,16.625-0.246c3.729,0.019,7.046,0.762,10.229,1.229c1.758-7.876,7.041-12.374,15.091-14.22
		C93.397,240.451,92.032,235.085,92.165,229.413z M125.927,258.339c6.142-0.365,13.862,1.862,19.438,0.246
		c1.516-0.438,3.487-2.331,5.37-3.921c8.745-7.391,17.218-14.177,25.322-21.083c3.451-2.939,7.264-5.647,9.976-8.825
		c1.404-1.646,3.484-4.646,3.068-7.107c-0.729-4.313-7.885-5.226-11.51-6.618c-4.602-1.771-8.696-4.233-12.021-6.128
		c-4.105-2.345-7.746-4.429-10.997-7.109c-3.336-2.751-6.895-6.779-10.485-7.845c-5.718-1.694-9.616,3.885-13.302,7.354
		c-6.228,5.866-12.106,10.563-17.902,16.669c-3.164,3.334-6.604,6.868-7.162,10.296c-0.358,2.201,0.458,5.688,0.256,8.579
		c-0.326,4.658-1.535,8.822-2.813,12.502c8.03,1.863,13.425,6.256,15.093,14.22C120.83,259.139,123.103,258.508,125.927,258.339z
		 M17.223,235.787c6.21,5.406,11.724,10.079,17.646,14.953c4.163,3.425,7.625,6.259,12.276,9.561
		c2.425,1.723,4.997,4.019,6.906,4.167c1.383,0.109,3.431-0.674,5.371-0.979c8.478-1.338,17.424-0.731,23.787,1.96
		c1.011-0.747,2.227-1.296,2.813-2.452c-4.472-2.002-9.068-3.528-15.347-3.677c-6.27-0.148-13.36,1.746-18.16,0.246
		c-2.278-0.714-3.628-2.696-5.883-4.658c-1.769-1.539-3.779-3.104-5.371-4.413c-7.807-6.42-14.404-11.544-21.741-17.896
		c-4.695-4.063-9.52-7.391-11.51-12.989c-0.016-0.15-0.038-0.291-0.257-0.246C6.105,227.207,12.323,231.522,17.223,235.787z
		 M186.547,225.737c-2.789,3.1-6.507,5.7-9.979,8.579c-8.284,6.871-17.396,14.091-25.576,21.325
		c-2.002,1.771-3.908,3.473-5.627,3.924c-4.759,1.25-11.34-0.318-17.646-0.246c-9.753,0.112-17.472,4.314-23.531,9.313
		c-6.2,5.114-12.042,10.832-17.137,15.688c-8.032,7.654-16.631,15.863-24.813,24.021c-3.013,3.007-6.238,6.645-9.975,6.619
		c-3.685-0.021-7.896-3.623-10.23-6.373c-1.357-1.598-2.202-3.424-3.069-5.393c0.101,2.646,0.493,4.774,1.536,6.616
		c1.852,3.271,8.58,9.445,14.065,8.582c2.86-0.452,7.065-5.721,8.952-7.602c1.712-1.707,3.617-3.592,5.116-5.146
		c9.57-9.941,17.294-17.668,27.368-26.721c5.023-4.519,10.229-8.979,15.346-11.767c8.701-4.737,20.865-5.864,32.995-2.697
		c8.557-4.868,16.66-11.659,25.063-18.63c3.777-3.133,7.584-6.372,11.768-10.051c4.344-3.822,11.029-9.146,8.951-16.178
		C189.395,221.674,188.23,223.863,186.547,225.737z M95.49,246.328c-8.011,1.557-13.191,5.822-14.579,13.728
		c2.354,0.521,3.979,1.744,6.141,2.452c3.749-3.352,8.157-6.073,10.999-10.296C97.101,250.341,96.037,248.583,95.49,246.328z
		 M102.651,247.064c-1.653,5.149-4.761,7.893-8.695,11.273c-7.38,6.347-14.979,12.326-22.765,17.896
		c-7.352,5.261-15.672,11.555-23.53,16.914c-2.443,1.667-7.192,3.892-7.674,5.884c-0.425,1.764,0.409,4.494,1.023,5.883
		c1.725,3.896,7.705,9.262,11.766,9.07c2.813-0.136,5.917-3.386,8.188-5.642c12.017-11.957,23.343-23.157,35.552-34.071
		c6.563-5.87,11.914-11.673,20.718-14.221c-1.431-7.698-6.505-11.904-14.065-13.728C102.843,246.429,102.64,246.644,102.651,247.064
		z M136.414,283.099c-7.23-5.23-14.536-10.438-21.483-15.934c-0.256,0-0.307-0.199-0.512-0.246
		c-4.486,2.32-8.771,4.832-12.021,8.335c10.069,8.859,21.297,20.167,31.715,30.153c3.039,2.912,7.635,9.061,12.021,8.824
		c0.96-0.054,3.252-1.324,4.604-2.205c4.526-2.955,7.515-6.927,7.417-13.482C151.249,292.993,143.645,288.33,136.414,283.099z
		 M157.387,307.122c-1.848,2.965-7.948,8.601-12.789,7.846c-4.128-0.645-8.562-6.243-11.51-9.068
		c-5.799-5.559-10.407-10.223-15.604-15.198c-5.298-5.078-10.624-10.504-15.855-14.953c-0.057-0.297-0.284-0.151-0.514,0
		c-0.252,0.331-0.683,0.489-1.021,0.734c-0.128,1.354,1.463,1.723,2.302,2.451c0.899,0.782,1.684,1.858,2.558,2.696
		c10.95,10.496,21.823,20.827,32.482,31.868c1.76,1.824,3.854,4.523,5.883,4.904c4.561,0.852,9.643-3.002,12.277-5.888
		c2.197-2.399,3.998-5.555,3.325-9.559C158.518,304.512,158.169,305.87,157.387,307.122z"/>
	<path d="M165.316,220.589c1.89-1.298,4.521-0.117,4.604,2.207c0.096,2.632-4.427,5.593-6.141,7.109
		c-4.44,3.929-9.723,8.076-14.321,12.011c-2.19,1.875-5.089,5.539-7.675,5.393c-0.776-0.043-2.111-0.741-2.303-0.979
		c-2.549-3.21,2.257-6.546,4.093-8.089C150.892,232.088,157.844,226.155,165.316,220.589z M168.297,224.521
		c1.346-2.064-0.566-3.725-2.213-2.707c-4.213,2.603-8.878,6.71-14.067,11.03c-2.192,1.827-4.677,3.787-6.906,5.64
		c-0.951,0.792-2.219,1.854-3.259,2.942c-0.368,0.388-1.479,1.652-1.733,2.082c-0.261,0.436-0.424,0.976-0.163,1.578
		c0.225,0.521,1.882,3.31,5.583-0.486c0.583-0.516,15.21-13.333,17.454-15.313c2.698-2.384,4.895-4.319,4.919-4.34
		C167.969,224.9,168.245,224.599,168.297,224.521z"/>
	<path d="M152.816,211.089c1.89-1.298,4.521-0.117,4.604,2.207c0.096,2.632-4.427,5.593-6.141,7.109
		c-4.44,3.929-9.723,8.076-14.321,12.011c-2.19,1.875-5.089,5.539-7.675,5.393c-0.776-0.043-2.111-0.741-2.303-0.979
		c-2.549-3.21,2.257-6.546,4.093-8.089C138.392,222.588,145.344,216.655,152.816,211.089z M155.797,215.021
		c1.346-2.064-0.566-3.725-2.213-2.707c-4.213,2.603-8.878,6.71-14.067,11.03c-2.192,1.827-4.677,3.787-6.906,5.64
		c-0.951,0.792-2.219,1.854-3.259,2.942c-0.368,0.388-1.479,1.652-1.733,2.082c-0.261,0.436-0.424,0.976-0.163,1.578
		c0.225,0.521,1.882,3.31,5.583-0.486c0.583-0.516,15.21-13.333,17.454-15.313c2.698-2.384,4.895-4.319,4.919-4.34
		C155.469,215.4,155.745,215.099,155.797,215.021z"/>
	<path d="M140.691,201.339c1.89-1.298,4.521-0.117,4.604,2.207c0.096,2.632-4.427,5.593-6.141,7.109
		c-4.44,3.929-9.723,8.076-14.321,12.011c-2.19,1.875-5.089,5.539-7.675,5.393c-0.776-0.043-2.111-0.741-2.303-0.979
		c-2.549-3.21,2.257-6.546,4.093-8.089C126.267,212.838,133.219,206.905,140.691,201.339z M143.672,205.271
		c1.346-2.064-0.566-3.725-2.213-2.707c-4.213,2.603-8.878,6.71-14.067,11.03c-2.193,1.827-4.677,3.787-6.906,5.64
		c-0.951,0.792-2.219,1.854-3.259,2.942c-0.368,0.388-1.479,1.652-1.733,2.082c-0.261,0.436-0.424,0.976-0.163,1.578
		c0.225,0.521,1.881,3.31,5.583-0.486c0.583-0.516,15.21-13.333,17.454-15.313c2.698-2.384,4.895-4.319,4.919-4.34
		C143.344,205.65,143.62,205.349,143.672,205.271z"/>
	<path d="M51.641,238.406c1.835,1.543,6.643,4.879,4.092,8.089c-0.188,0.238-1.522,0.937-2.302,0.979
		c-2.586,0.146-5.483-3.519-7.673-5.393c-4.604-3.935-9.883-8.082-14.324-12.011c-1.713-1.518-6.233-4.479-6.14-7.109
		c0.084-2.323,2.717-3.504,4.604-2.207C37.373,226.322,44.324,232.255,51.641,238.406z M27.307,225.114
		c0.024,0.021,2.22,1.957,4.919,4.34c2.243,1.979,16.871,14.797,17.454,15.313c3.703,3.794,5.358,1.008,5.583,0.486
		c0.26-0.604,0.097-1.144-0.163-1.578c-0.258-0.43-1.367-1.696-1.733-2.082c-1.04-1.09-2.308-2.151-3.26-2.942
		c-2.229-1.853-4.713-3.813-6.905-5.64c-5.188-4.32-9.854-8.429-14.068-11.032c-1.646-1.016-3.558,0.645-2.212,2.707
		C26.972,224.766,27.248,225.067,27.307,225.114z"/>
	<path d="M64.141,228.906c1.835,1.543,6.643,4.879,4.092,8.089c-0.188,0.238-1.522,0.937-2.302,0.979
		c-2.586,0.146-5.483-3.519-7.673-5.393c-4.604-3.935-9.881-8.082-14.324-12.011c-1.713-1.518-6.233-4.479-6.14-7.109
		c0.084-2.323,2.717-3.504,4.604-2.207C49.873,216.822,56.824,222.755,64.141,228.906z M39.807,215.614
		c0.024,0.021,2.22,1.957,4.919,4.34c2.243,1.979,16.871,14.797,17.454,15.313c3.703,3.794,5.358,1.008,5.583,0.486
		c0.26-0.604,0.097-1.144-0.163-1.578c-0.258-0.43-1.367-1.696-1.733-2.082c-1.04-1.09-2.308-2.151-3.26-2.942
		c-2.229-1.853-4.713-3.813-6.905-5.64c-5.188-4.32-9.854-8.429-14.066-11.032c-1.646-1.016-3.56,0.645-2.214,2.707
		C39.472,215.266,39.748,215.567,39.807,215.614z"/>
	<path d="M76.266,219.156c1.835,1.543,6.643,4.879,4.092,8.089c-0.188,0.238-1.522,0.937-2.302,0.979
		c-2.586,0.146-5.483-3.519-7.673-5.393c-4.604-3.935-9.881-8.082-14.324-12.011c-1.713-1.518-6.233-4.479-6.138-7.109
		c0.084-2.323,2.715-3.504,4.604-2.207C61.998,207.072,68.949,213.005,76.266,219.156z M51.932,205.864
		c0.026,0.021,2.22,1.957,4.919,4.34c2.243,1.979,16.871,14.797,17.454,15.313c3.703,3.794,5.358,1.008,5.583,0.486
		c0.26-0.604,0.097-1.144-0.163-1.578c-0.258-0.43-1.367-1.696-1.733-2.082c-1.04-1.09-2.308-2.151-3.26-2.942
		c-2.229-1.853-4.713-3.813-6.905-5.64c-5.188-4.32-9.854-8.429-14.066-11.032c-1.646-1.016-3.56,0.645-2.212,2.707
		C51.597,205.516,51.873,205.817,51.932,205.864z"/>
</g>
<g id="Layer_15">
	<g>
		<path d="M238.052,227.597c0,1.077-1.782,3.729-5.347,7.957h-0.745c-0.554-0.221-0.898-1.036-1.036-2.444
			c-0.305-2.846-1.285-5.174-2.942-6.982c-1.656-1.809-3.646-2.715-5.967-2.715c-2.184,0-4.062,0.794-5.636,2.381
			c-1.575,1.587-2.362,3.483-2.362,5.691c0,1.601,0.5,3.317,1.5,5.152s3.589,4.745,7.771,8.729c4.181,3.983,6.862,7.157,8.053,9.52
			c1.188,2.362,1.781,4.606,1.781,6.733c0,4.918-2.135,9.249-6.401,12.992c-4.27,3.744-9.262,5.614-14.981,5.614
			c-4.724,0-8.619-1.099-11.686-3.295c-3.067-2.195-4.601-3.983-4.601-5.365c0-0.773,0.843-2.569,2.527-5.389
			c1.686-2.816,2.652-4.227,2.901-4.227c0.884,0,1.513,0.256,1.886,0.767c0.373,0.512,0.628,1.458,0.768,2.839
			c0.414,4.311,1.457,7.279,3.128,8.909c1.672,1.631,3.848,2.445,6.526,2.445c2.929,0,5.483-1.015,7.667-3.043
			c2.183-2.029,3.273-4.382,3.273-7.061c0-1.38-0.425-2.85-1.271-4.408c-0.848-1.561-3.236-4.215-7.169-7.963
			c-3.933-3.749-6.506-6.921-7.722-9.519c-1.216-2.597-1.823-5.124-1.823-7.584c0-4.281,1.616-8.219,4.849-11.812
			c3.231-3.591,7.527-5.387,12.889-5.387c4.061,0,7.438,0.934,10.132,2.797C236.705,224.8,238.052,226.354,238.052,227.597z"/>
		<path d="M283.222,270.033c-3.757,4.144-6.583,6.879-8.476,8.205c-1.894,1.326-3.766,1.988-5.614,1.988
			c-1.051,0-2.979-0.455-5.781-1.366c-2.805-0.912-4.925-1.368-6.361-1.368c-1.796,0-3.102,0.456-3.915,1.368
			c-0.814,0.911-1.348,1.366-1.597,1.366c-1.382,0-2.21-0.021-2.485-0.063c-0.275-0.041-0.415-0.146-0.415-0.312
			c0-0.607,2.361-3.798,7.086-9.572l14.298-17.404c-1.604,0.331-3.329,0.497-5.182,0.497c-2.485,0-5.056-0.415-7.708-1.243
			c-4.973,7.128-9.808,13.095-14.504,17.902h-0.952v-3.729c3.508-3.592,6.887-7.618,10.132-12.08
			c3.246-4.462,5.132-7.272,5.656-8.434c0.524-1.16,0.953-1.74,1.285-1.74c0.193,0,1.464,0.188,3.813,0.561s4.24,0.56,5.678,0.56
			c2.597,0,4.979-0.187,7.147-0.56c2.168-0.373,3.434-0.561,3.792-0.561c0.523,0,0.786,0.137,0.786,0.408
			c-0.021,1.009-2.255,4.183-6.7,9.52l-13.38,16.223c1.105-0.11,2.02-0.166,2.737-0.166c0.525,0,2.314,0.311,5.372,0.933
			c3.058,0.621,4.889,0.933,5.497,0.933c1.714,0,3.188-0.463,4.418-1.389c1.229-0.926,3.021-2.673,5.372-5.242L283.222,270.033
			L283.222,270.033z"/>
		<path d="M303.005,251.097c1.986-2.403,3.863-4.18,5.632-5.327c1.767-1.146,3.727-1.721,5.88-1.721
			c2.788,0,5.059,1.071,6.812,3.212c1.753,2.142,2.631,4.952,2.631,8.434c0,6.105-2.106,11.707-6.32,16.805
			c-4.214,5.097-8.794,7.646-13.74,7.646c-1.381,0-2.473-0.151-3.273-0.455c-0.802-0.306-1.852-1.01-3.149-2.114
			c-1.988,8.758-3.271,15.775-3.851,21.054l-10.524,1.863c1.961-12.93,4.461-26.024,7.501-39.286
			c-3.646,4.78-6.105,7.723-7.376,8.827h-0.953v-3.729c5.249-5.663,9.573-12.543,12.972-20.638l9.367-1.7L303.005,251.097z
			 M298.212,273.262c1.438,2.378,3.026,3.566,4.77,3.566c2.792,0,5.26-2.12,7.403-6.361c2.143-4.24,3.214-8.377,3.214-12.411
			c0-2.127-0.437-3.847-1.306-5.158c-0.869-1.313-1.995-1.97-3.377-1.97c-1.076,0-2.209,0.483-3.396,1.451
			c-1.188,0.968-2.085,2.093-2.692,3.378c-0.605,1.284-1.297,3.529-2.069,6.734L298.212,273.262z"/>
		<path d="M373.521,270.033c-4.42,4.199-7.583,6.935-9.49,8.205c-1.906,1.271-3.729,1.905-5.47,1.905
			c-4.366,0-6.423-3.854-6.175-11.562c-2.765,3.951-5.313,6.865-7.646,8.743c-2.335,1.879-4.745,2.817-7.229,2.817
			c-2.433,0-4.496-1.14-6.195-3.419c-1.699-2.278-2.548-5.075-2.548-8.392c0-4.146,1.14-8.095,3.419-11.854
			c2.279-3.757,5.201-6.796,8.765-9.115c3.563-2.321,6.713-3.481,9.448-3.481c3.453,0,5.871,1.589,7.252,4.767l8.47-4.684h2.325
			l-3.653,12.144c-1.885,6.105-2.824,10.292-2.824,12.558c0,2.375,0.842,3.563,2.524,3.563c1.077,0,2.267-0.572,3.563-1.72
			c1.298-1.146,3.121-2.894,5.468-5.242L373.521,270.033L373.521,270.033z M343.187,272.313c2.762,0,5.366-2.355,7.813-7.065
			c2.445-4.71,3.668-9.056,3.668-13.033c0-1.547-0.348-2.756-1.036-3.626c-0.691-0.871-1.616-1.306-2.776-1.306
			c-2.763,0-5.381,2.349-7.853,7.045c-2.475,4.697-3.71,9.021-3.71,12.971c0,1.492,0.365,2.701,1.099,3.626
			C341.12,271.849,342.053,272.313,343.187,272.313z"/>
		<path d="M397.349,270.033c-3.481,3.454-6.492,6.002-9.034,7.646c-2.542,1.645-4.959,2.466-7.252,2.466
			c-2.376,0-4.303-1.001-5.781-3.005c-1.478-2.002-2.217-4.634-2.217-7.894c0-2.873,0.708-6.667,2.126-11.381l1.758-6.273
			l-3.18,0.166l1.328-6.506l3.938-0.166l3.893-12.93l11.068-2.272l-4.281,14.415l5.853-0.332l-1.368,6.382l-6.429,0.497l-2.76,9.286
			c-0.959,3.228-1.439,5.794-1.439,7.701c0,1.3,0.325,2.356,0.978,3.173c0.648,0.816,1.484,1.224,2.511,1.224
			c1.411,0,2.808-0.448,4.191-1.347c1.384-0.896,3.418-2.77,6.102-5.615v4.766H397.349z"/>
		<path d="M441.566,270.033c-3.646,3.454-6.699,6.002-9.158,7.646c-2.459,1.645-4.669,2.466-6.631,2.466
			c-2.182,0-3.859-0.869-5.035-2.609c-1.174-1.741-1.761-4.104-1.761-7.087c-3.039,3.343-5.761,5.809-8.163,7.396
			c-2.404,1.588-4.752,2.383-7.045,2.383c-2.101,0-3.785-0.869-5.057-2.61c-1.271-1.74-1.906-4.104-1.906-7.086
			c0-5.746,1.934-13.841,5.803-24.284l11.068-2.205c-4.552,13.243-6.832,21.742-6.842,25.497c0,2.651,0.992,3.976,2.981,3.976
			c1.438,0,3.218-1.166,5.347-3.501s3.452-4.372,3.979-6.112l5.429-17.653l11.28-2.281c-2.604,8.315-4.391,14.158-5.36,17.528
			c-0.97,3.371-1.453,5.731-1.453,7.088c0,2.598,0.886,3.896,2.653,3.896c1.438,0,3.566-1.312,6.387-3.937l3.483-3.273V270.033
			L441.566,270.033z"/>
		<path d="M468.959,270.033c-3.813,3.479-7.127,6.036-9.944,7.666c-2.818,1.63-5.525,2.444-8.123,2.444
			c-2.956,0-5.146-0.847-6.568-2.541c-1.423-1.692-2.299-3.62-2.631-5.783c-0.332-2.162-0.498-4.73-0.498-7.705l-7.79,3.087v-3.384
			l8.163-3.232c1.879-12.902,6.037-25.058,12.477-36.468l10.523-3.896c0.332-0.109,0.58-0.166,0.746-0.166
			c1.823,0,2.734,2.279,2.734,6.838c0,4.504-0.794,8.849-2.385,13.033c-1.588,4.187-4.535,9.068-8.848,14.648l8.082-3.149v3.297
			l-12.848,5.091c-0.275,2.807-0.414,4.897-0.414,6.272c0,2.229,0.449,4.038,1.348,5.428c0.896,1.39,2.064,2.083,3.501,2.083
			c1.547,0,3.198-0.572,4.952-1.72c1.754-1.146,4.262-3.35,7.521-6.609L468.959,270.033L468.959,270.033z M453.089,253.83
			c3.533-3.901,6.388-8.266,8.557-13.094s3.254-8.998,3.254-12.513c0-1.022-0.152-1.847-0.456-2.47
			c-0.305-0.622-0.688-0.934-1.161-0.934c-0.746,0-2.017,1.972-3.813,5.914C457.674,234.676,455.547,242.375,453.089,253.83z"/>
		<path d="M513.218,270.033c-4.42,4.199-7.582,6.935-9.488,8.205c-1.906,1.27-3.73,1.905-5.471,1.905
			c-4.365,0-6.425-3.854-6.177-11.562c-2.763,3.951-5.312,6.865-7.646,8.743c-2.336,1.879-4.745,2.817-7.232,2.817
			c-2.431,0-4.495-1.14-6.193-3.419c-1.698-2.278-2.548-5.075-2.548-8.392c0-4.146,1.14-8.095,3.419-11.854
			c2.277-3.757,5.199-6.796,8.765-9.115c3.563-2.321,6.714-3.481,9.448-3.481c3.453,0,5.871,1.589,7.252,4.767l8.471-4.684h2.324
			l-3.654,12.144c-1.883,6.105-2.824,10.292-2.824,12.558c0,2.375,0.844,3.563,2.525,3.563c1.078,0,2.266-0.572,3.563-1.72
			c1.297-1.146,3.119-2.894,5.467-5.242L513.218,270.033L513.218,270.033z M482.884,272.313c2.763,0,5.366-2.355,7.813-7.065
			c2.444-4.71,3.667-9.056,3.667-13.033c0-1.547-0.346-2.756-1.036-3.626c-0.689-0.871-1.614-1.306-2.774-1.306
			c-2.765,0-5.381,2.349-7.854,7.045c-2.474,4.697-3.709,9.021-3.709,12.971c0,1.492,0.365,2.701,1.1,3.626
			C480.817,271.849,481.75,272.313,482.884,272.313z"/>
		<path d="M567.091,270.033c-1.879,2.184-5.475,4.644-10.779,7.379c-1.104,7.348-3.551,13.031-7.334,17.051
			c-3.785,4.021-8.037,6.029-12.762,6.029c-2.266,0-4.039-0.525-5.324-1.576s-1.926-2.502-1.926-4.354
			c0-5.14,4.988-10.129,14.973-14.964c1.045-3.728,2.063-7.081,3.055-10.063c-1.74,2.514-4.27,4.738-7.584,6.672
			s-6.396,2.9-9.24,2.9c-4.643,0-8.503-2.011-11.582-6.029c-3.08-4.02-4.621-9.11-4.621-15.271c0-6.49,1.739-12.646,5.223-18.461
			c3.48-5.814,8.053-10.471,13.717-13.966c5.662-3.495,11.146-5.242,16.451-5.242c4.752,0,8.613,1.354,11.582,4.062
			c2.971,2.708,4.455,6.217,4.455,10.525c0,4.643-1.672,8.73-5.014,12.268c-3.346,3.536-7.186,5.305-11.521,5.305
			c-2.541,0-4.646-0.622-6.316-1.865c-1.674-1.242-2.51-2.775-2.51-4.6c0-1.105,0.324-2.086,0.977-2.942
			c0.646-0.855,1.398-1.284,2.258-1.284c0.828,0,1.244,0.483,1.244,1.449c0,0.857,0.314,1.521,0.953,1.989
			c0.635,0.471,1.367,0.705,2.193,0.705c2.211,0,4.33-1.513,6.361-4.538s3.047-6.264,3.047-9.718c0-2.432-0.789-4.413-2.362-5.946
			c-1.573-1.534-3.604-2.301-6.093-2.301c-3.729,0-7.342,1.658-10.836,4.974c-3.496,3.314-6.342,7.673-8.537,13.074
			s-3.295,10.533-3.295,15.396c0,4.476,0.968,8.031,2.898,10.671c1.934,2.639,4.502,3.957,7.705,3.957
			c5.412,0,10.588-3.826,15.53-11.479l7.784-1.119c0.969-0.138,1.451,0.097,1.451,0.7c0,0.275-0.375,1.463-1.121,3.563
			c-0.746,2.099-1.77,5.606-3.068,10.523c4.293-2.482,7.615-5.229,9.971-8.239L567.091,270.033L567.091,270.033z M542.972,283.791
			c-7.186,3.592-10.775,7.128-10.775,10.609c0,1.851,0.883,2.775,2.652,2.775C538.329,297.176,541.036,292.714,542.972,283.791z"/>
		<path d="M611.306,270.033c-4.42,4.199-7.582,6.935-9.488,8.205c-1.906,1.27-3.729,1.905-5.471,1.905
			c-4.365,0-6.424-3.854-6.176-11.562c-2.764,3.951-5.313,6.865-7.646,8.743c-2.336,1.879-4.746,2.817-7.23,2.817
			c-2.434,0-4.496-1.14-6.195-3.419c-1.699-2.278-2.549-5.075-2.549-8.392c0-4.146,1.141-8.095,3.42-11.854
			c2.277-3.757,5.201-6.796,8.764-9.115c3.564-2.321,6.715-3.481,9.449-3.481c3.453,0,5.871,1.589,7.252,4.767l8.471-4.684h2.324
			l-3.654,12.144c-1.883,6.105-2.822,10.292-2.822,12.558c0,2.375,0.842,3.563,2.523,3.563c1.078,0,2.268-0.572,3.563-1.72
			c1.296-1.146,3.12-2.894,5.467-5.242L611.306,270.033L611.306,270.033z M580.972,272.313c2.762,0,5.367-2.355,7.813-7.065
			c2.446-4.71,3.666-9.056,3.666-13.033c0-1.547-0.346-2.756-1.033-3.626c-0.691-0.871-1.615-1.306-2.777-1.306
			c-2.762,0-5.381,2.349-7.854,7.045c-2.473,4.697-3.709,9.021-3.709,12.971c0,1.492,0.365,2.701,1.1,3.626
			C578.907,271.849,579.841,272.313,580.972,272.313z"/>
		<path d="M624.031,245.749c1.906-0.497,3.826-0.905,5.762-1.223c1.934-0.318,3.094-0.478,3.479-0.478
			c0.275,0,0.414,0.11,0.414,0.331c0,0.415-0.109,0.842-0.33,1.284c-0.443,1.27-0.664,2.485-0.664,3.645
			c0.004,1.438,0.834,3.398,2.49,5.887c1.652,2.486,2.48,4.796,2.48,6.923c0,4.227-2.021,8.302-6.068,12.225
			c-4.05,3.924-8.24,5.885-12.578,5.885c-1.879,0-3.592-0.496-5.141-1.491c-1.547-0.994-2.318-2.059-2.318-3.19
			c0-0.663,0.768-1.92,2.301-3.771c1.533-1.852,2.631-2.776,3.293-2.776c0.885,0,1.672,1.133,2.363,3.398
			c0.688,2.266,1.879,3.396,3.563,3.396c1.685,0,3.268-0.78,4.744-2.341c1.479-1.563,2.217-3.24,2.217-5.036
			c0.002-1.741-0.938-4.062-2.814-6.962s-3.123-5.331-3.73-7.293c-3.205,5.167-7.268,10.457-12.184,15.872h-0.953v-3.729
			C617.122,259.092,621.681,252.241,624.031,245.749z"/>
		<path d="M669.572,270.033c-3.479,3.454-6.492,6.002-9.033,7.646c-2.543,1.645-4.959,2.466-7.252,2.466
			c-2.377,0-4.303-1.001-5.779-3.005c-1.479-2.002-2.219-4.634-2.219-7.894c0-2.873,0.709-6.667,2.128-11.381l1.759-6.273
			l-3.182,0.166l1.326-6.506l3.941-0.166l3.891-12.93l11.07-2.272l-4.283,14.415l5.852-0.332l-1.367,6.382l-6.43,0.497l-2.76,9.286
			c-0.961,3.228-1.438,5.794-1.438,7.701c0,1.3,0.323,2.356,0.976,3.173c0.649,0.816,1.486,1.224,2.512,1.224
			c1.41,0,2.811-0.448,4.191-1.347c1.381-0.897,3.416-2.77,6.1-5.615L669.572,270.033L669.572,270.033z"/>
		<path d="M700.529,270.033c-6.936,6.796-12.281,10.193-16.037,10.193c-1.686,0-3.107-0.712-4.27-2.135
			c-1.16-1.422-1.74-3.184-1.74-5.283c0-3.896,2.086-9.116,6.258-15.665c-2.045,1.052-4.283,1.782-6.713,2.197
			c-1.797,3.314-4.615,6.879-8.455,10.691h-0.953v-3.729c2.156-2.237,4.104-4.642,5.846-7.211c-2.377-1.05-3.564-2.61-3.564-4.683
			c0-2.127,0.727-4.399,2.176-6.817c1.451-2.417,3.447-3.626,5.988-3.626c2.154,0,3.232,1.105,3.232,3.315
			c0,1.74-0.621,4.227-1.865,7.459c4.586-0.497,8.592-4.005,12.018-10.525l3.771-0.166l-3.854,10.608
			c-1.604,4.476-2.639,7.521-3.105,9.138c-0.473,1.616-0.705,3.046-0.705,4.289c0,1.161,0.27,2.087,0.809,2.777
			c0.537,0.689,1.264,1.035,2.176,1.035c0.994,0,1.947-0.339,2.859-1.016c0.91-0.677,2.955-2.549,6.133-5.615L700.529,270.033
			L700.529,270.033z"/>
		<path d="M737.741,270.033c-1.406,1.243-2.773,2.12-4.102,2.631c-1.326,0.512-2.377,0.768-3.15,0.768
			c-1.986,0-3.965-0.772-5.926-2.32c-3.979,6.022-8.537,9.033-13.676,9.033c-3.205,0-5.802-1.201-7.789-3.604
			c-1.99-2.403-2.984-5.595-2.984-9.572c0-6.3,2.238-11.707,6.713-16.225c4.479-4.518,9.822-6.775,16.037-6.775
			c2.35,0,4.068,0.256,5.16,0.768s1.762,1.111,2.01,1.803c0.248,0.69,0.373,1.562,0.373,2.61c0,5.167-1.408,11.508-4.227,19.021
			c1.408,1.299,2.887,1.948,4.434,1.948c1.854,0,4.229-1.616,7.127-4.85V270.033L737.741,270.033z M724.068,246.868
			c-0.416-0.166-1.01-0.249-1.783-0.249c-3.592,0-6.4,1.879-8.432,5.636c-2.031,3.758-3.047,8.15-3.047,13.178
			c0,2.791,0.439,4.96,1.326,6.508c0.885,1.548,2.111,2.319,3.688,2.319c1.963,0,4.09-1.809,6.383-5.429
			c-2.598-3.26-3.896-6.769-3.896-10.525C718.306,253.885,720.226,250.073,724.068,246.868z"/>
	</g>
	<g>
		<polygon points="140.834,246.542 168.794,221.958 167.044,220.875 164.294,222.25 152.625,231.458 147.669,235.833 142.419,240 
			139.625,243.417 139.419,245.042 140.125,246.333 		"/>
		<polygon points="128.334,237.042 156.294,212.458 154.544,211.375 151.794,212.75 140.125,221.958 135.169,226.333 129.919,230.5 
			127.125,233.917 126.919,235.542 127.625,236.833 		"/>
		<polygon points="116.209,227.292 144.169,202.708 142.419,201.625 139.669,203 128,212.208 123.044,216.583 117.794,220.75 
			115,224.167 114.794,225.792 115.5,227.083 		"/>
		<polygon points="54.385,246.708 26.425,222.125 28.175,221.042 30.925,222.417 42.593,231.625 47.552,236 52.802,240.167 
			55.593,243.583 55.802,245.208 55.093,246.5 		"/>
		<polygon points="66.885,237.208 38.925,212.625 40.677,211.542 43.427,212.917 55.093,222.125 60.052,226.5 65.302,230.667 
			68.093,234.083 68.302,235.708 67.593,237 		"/>
		<polygon points="79.01,227.458 51.052,202.875 52.802,201.792 55.552,203.167 67.218,212.375 72.177,216.75 77.427,220.917 
			80.218,224.333 80.427,225.958 79.718,227.25 		"/>
	</g>
</g>
<path stroke="#000000" d="M197.156,205.169"/>
</svg>
