<?xml version="1.0" encoding="utf-8"?>
<!-- Generator: Adobe Illustrator 13.0.0, SVG Export Plug-In . SVG Version: 6.00 Build 14948)  -->
<!DOCTYPE svg PUBLIC "-//W3C//DTD SVG 1.1//EN" "http://www.w3.org/Graphics/SVG/1.1/DTD/svg11.dtd">
<svg version="1.1" id="Layer_1" xmlns="http://www.w3.org/2000/svg" xmlns:xlink="http://www.w3.org/1999/xlink" x="0px" y="0px"
	 width="776px" height="587.333px" viewBox="0 0 776 587.333" enable-background="new 0 0 776 587.333" xml:space="preserve">
<g id="Layer_3" display="none">
	<rect x="0" display="inline" fill="#E6E6E6" width="776" height="587.333"/>
</g>
<g id="main-color" display="none">
	<path display="inline" fill="#FCEE21" d="M40.668,149l13-8.333l11.332-5L77.334,131l16-5l15-8L126,108l11.668-7.333l18.666-11
		L167,80l9.668-8.667l11-9L200.334,51L211,46l7.668-3.333l16.332,3L245.334,53l11,8.667L270,77l17.334,15.333l11.666,11l14,15
		L331,135l18,21.333L361,172l6.334,12.333l-1,18v17l3,26L376,269l7.334,18.667l4.332,10L387,305l-16.332,18l-27,23.332l-3.354-3.438
		l-6-2l-5.938-2.688l-9.625-3l-7-2.875l-8.063-1.875l-8.188-1.5l-12.063-0.875L256.418,329l-13.5,1.332l-34.418-1.5l-14.832-11.5
		l-4.75-5.332l-21.25-17.668l-6.5-4.5l-8.5-8l-10.168-8l-16.75-14.25l-17.5-14.75l-8.75-9l-9.75-7.5l-8.5-8.25L71,211.333l-11-9.75
		l-8.5-8l-8-12.5l-5-6.5l-2.75-7.5L40.668,149z M123.668,197.5l10,7.833L145.834,215l17.5,13.833l12.5,11.167L203,261.5l9,9.5
		l7.834,4.667l3.416,1.167c0,0,2.834,0.5,4.25-1.75c-0.856-0.738,4.598-1.428,5.216-2.501c3.871-6.723-5.716-23.249-42.082-48.196
		c3.467,0.125-21.966-16.957-32.487-25.691c-10.521-8.735-35.303-26.087-35.679-26.251C104.125,179.958,123.668,197.5,123.668,197.5
		z M174,157.333l-5.332-5.667l0.332-8.5l4-4.833l8.668,0.667l9.666,7l33,25l29.334,25.333l29,23.667L288,232.667l-8.332,6H270
		l-12.666-10.333L236,208.667l-25.666-20.333l-23-19.667L174,157.333z M238.668,134l37,30.333l23.332,18l21,19h7.668l6-4.333
		l2-8.333L331,181.333L230.668,101L221,100l-4.332,6.333L219,114L238.668,134z M445.5,361.583l-17.5,10.75l-17.5,12.5l-10.25,8.5
		l105.125,105.375l13.5,13.75l21.375,22.75l14.5,14.25l11.875,4.5l10.25,0.375l6.5-2.375l11.625-7l15-13.375l6.375-9.5l7.125-22.25
		v-12.5L453,357.833L445.5,361.583z M157.334,507l7.332,17.332L176,537l13.668,12L201,553.667l11,1L223.334,549l9.666-9l8.334-8
		l23-25.168l29.5-28.332L335,437.167l27.168-28l9.582-8.584l25-24l25.5-20.75l13.75-9.75l22-10.25l14.75-3.5l25.25-4l16.5,0.75
		l21.5,1.75l25.25,0.25l13.25-3.75L581,323l15.334-13.668l14.334-13.666L633,277.333l13.668-11l9.582-8.75l19.875-17.875l17-14.875
		l17.875-14.5l11.75-11.375l9.918-10.458l8.334-13.833l3.5-11.5L743.168,155l-4.834-7.667l-9.166-5.5l-7.5-4.667l-12.334-3.667
		l-12.832-2.833L688.334,124l-13.084-4.417L659,108.833l-14-5.5l-9.5-8l-10.25-8.25L611,77.833l-13.25-10.75l-9-8.25L577,50.083
		l-14.75-7.75l-13.75,0.75l-10.5,5l-6.25,5.75l-9,9.5l-10.25,11.5l-12.75,11.25l-11.25,10.75l-15.25,13l-8.75,10.5l-10.75,9.75
		l-13.5,13.75l-12.5,14.5l-10.25,16l-4.25,10.75c0,0-0.5,16.25,0.25,18.75s-0.25,17.5-0.25,17.5l-4,32.25l-5.5,21.25l-6.5,14
		L386.5,307l-10.832,10.5l-12,11.166l-10.5,9.666l-10.334,8.5L332.168,355l-6.334,6.166L315,368.333L302.334,379l-16,13
		l-18.668,13.666l-15,11.666l-12.666,9l-16.668,11l-14.332,10l-9.668,8.334l-15.666,8.666l-3.668,6l-8,5l-7.33,4.668L159,485.333
		L156.334,494L157.334,507z M583,230.333l-15.5,12l-14.5,16.25l-4.5,8.25l3,8.75l9.5,3l10.75-6.5l8-9.5l10-8.25l8.5-8l15-13.75
		l19.75-16.75l20.25-17.75l9.5-9.75l1-9l-3.25-6H651l-9.25,7l-12,10.25l-19,16.5l-13.75,12L583,230.333z M498.75,221.833l15.5-13.75
		l17.5-16.5l15.75-12.5l13-12.25l17.5-14.5l16.5-12.5l9.25-3l6.25,5.5l0.75,6.5l-6.75,8.75l-4.5,5.25l-7.5,6.5l-12,11.5l-10,8
		l-5.25,4.25l-6.75,6l-5.75,4.75l-7.75,7.25l-4.25,4.5l-6.25,5l-4.25,4l-6.25,5.75l-7.75,6.5l-6.25,3.75h-9.75l-5.25-2.5l-0.75-6
		l2-6L498.75,221.833z M450.25,188.333l-0.75,8.25l4,5l5.25,1.5l6.5-1.25l8-4.5l5.25-5l7-8l19.25-17.25l26-22l21.5-18.75l12.5-13.5
		l2-9.25l-6.5-4.25l-6.25-1.25l-94,79L450.25,188.333z"/>
</g>
<g id="dark1" display="none">
	<path display="inline" fill="#FBB03B" d="M120.334,194l-3.5-4.833L114,182l1.5-5.333c0,0,4.334-2.667,11.168-2.167
		S209.5,239,209.5,239l17.334,13.667l6,8.333l1.332,6.333l-2.332,4l-4,4.667l-3.168-1.833l-9.332-9.833l-11.834-9.667l-12.166-10.5
		l-11-8.667l-10.834-9.667L158.834,218L147,208.167L138.668,201l-6.333-4.667l-3.833-3.667l-4-1.333l-2.5,1.5L120.334,194z
		 M176,156.833l2-2.167l3.668,0.833c0,0,93,75.666,98,82.333c2,2.167,4.5,1.333,4.5,1.333l3.332-3.833l1-7.333l-5-6.833
		c0,0-75.666-69.833-103.166-84c-10.334-4.5-12.5,5.833-12.5,5.833l3.5,10l3.666,4.667L176,156.833z M222.168,98.833l-5.5,7.5
		l2,6.667l4.332,6c0,0,3.334-2.333,6-2c2.668,0.333,34.5,28,34.5,28s27.834,22.5,33.168,26.667s27.332,24.5,27.332,24.5l3.168,2.833
		l1.332,3l5.5-2.333c0,0,5.168-1.833,1.668-12.833S228,98.833,228,98.833H222.168z M458,201.708l33-31.625l37.875-32.375
		l26.375-21.875l5.25,2.125l6-9.375l-3.5-8.417l-4.166-1.333l-8.666,2.333L455,181.333l-3.666,8.167l-2,6.5l4.834,6.167L458,201.708
		z M494.5,238.083l4.834,3.417l9.5-7.167l8-8l12.334-11.667l15-13l10.332-8.333l14.834-13.167l11.334-10l10.832-10l4.334-3.167
		l6.166-3.167l3.168,2.333L607.5,156l3.668-11l-1.668-5.333l-8.832-2.5l-15.168,9.167l-26.332,22.333l-29.834,24.5l-26.166,24
		l-9,11.5L494.5,238.083z M657.375,192.833l6.625-8.875l-0.75-8.375l-5.625-3.75l-12.375,6.75l-91.375,76.5l-6.125,13.125
		l2.75,8.625l4.5,0.625l4.75-4.875l12-12l13.5-12l17-15l21.25-18.5l16.75-14.875l8.5-7.625l7.625-2.125L657.375,192.833z"/>
</g>
<g id="dark2" display="none">
	<path display="inline" fill="#F7931E" d="M34.5,162.083l10.75,22.25l25.75,27l54.75,48.25l39,31.875l20.625,17.25l7.5,8.625
		l8.875,7.125l11.25,4.75l27.75,1.375l39.125-2.625l13.875,1.5l22.375,4.375l14.5,4.375l9.5,6.25l-3,7.25l-7.375,5.875l-8.375-2.25
		l-15.875-4.625l-13.125-3.25l-20.5-2l-27.125,1.75l-12,2.625l-7.582,1.334l-10.334,2.166l-11.666-4L168.668,323l-36.5-31.333
		l-24.5-21.833L77,242.958l-22.125-20.625l-20.25-22.75l-4.875-15.875l-0.625-12.5l3.125-9.25L34.5,162.083z M152,515.333l5,18
		l16,21.25l15.5,12L211,573c0,0,9.813-1.918,12.668-4c3,0.666,84.082-87.418,84.082-87.418l64-64.5l19.25-15l104,103.75l61.75,63.25
		l6.75,2.25l12,1.25l12-5l12.75-7.5l13.75-12.75l10.25-14.25l3.25-17.5l-3.75-18l-8.25,26.5l-19,20.25l-14,7.75l-10.5,3.25
		l-8.75-2.5l-21-16.25L415.563,407.958l-9.729-8.791l-6.378-6.967l9.046-7.617l20-13.75l16.375-10.625l12.625-5l13.375-4.625
		l18.5-3.75l22-1.375l17.875,0.5l36.125,6l5.625-1.5l9.125-4.25l8.375-6.25l8.375-6l9.25-7.375l11.75-9.375l9.875-8.5l18-15.208
		l21.332-18.667l47.25-42.083L729,219.083l9.75-9.25l9.5-15.25l2.25-16.25c0,0-8-27.5-6.75-17S732.668,188.5,732.668,188.5
		l-7.334,7.667L691.668,226.5l-29.334,24.667l-15.666,15.167l-36.168,30L591,313.167l-8.166,7.5l-9.834,7l-18.332,2.666L522,329
		l-29-1l-20.25,4.332l-11.916,1.834l-40,22l-33,29.166L335,437.167l-14.75,13.791l-51.875,52.625l-22.5,22.75l-19.25,20.125
		l-10,5.875l-9.875,2.625l-14.375-5.125l-12.75-8.75l-11.875-14l-13-21.75L152,515.333z"/>
</g>
<g id="dark1_copy" display="none">
	<path display="inline" fill="#FCEE21" d="M120.334,194l-3.5-4.833L114,182l1.5-5.333c0,0,4.334-2.667,11.168-2.167
		S209.5,239,209.5,239l17.334,13.667l6,8.333l1.332,6.333l-2.332,4l-4,4.667l-3.168-1.833l-9.332-9.833l-11.834-9.667l-12.166-10.5
		l-11-8.667l-10.834-9.667L158.834,218L147,208.167L138.668,201l-6.333-4.667l-3.833-3.667l-4-1.333l-2.5,1.5L120.334,194z
		 M176,156.833l2-2.167l3.668,0.833c0,0,93,75.666,98,82.333c2,2.167,4.5,1.333,4.5,1.333l3.332-3.833l1-7.333l-5-6.833
		c0,0-75.666-69.833-103.166-84c-10.334-4.5-12.5,5.833-12.5,5.833l3.5,10l3.666,4.667L176,156.833z M222.168,98.833l-5.5,7.5
		l2,6.667l4.332,6c0,0,3.334-2.333,6-2c2.668,0.333,34.5,28,34.5,28s27.834,22.5,33.168,26.667s27.332,24.5,27.332,24.5l3.168,2.833
		l1.332,3l5.5-2.333c0,0,5.168-1.833,1.668-12.833S228,98.833,228,98.833H222.168z M458,201.708l33-31.625l37.875-32.375
		l26.375-21.875l5.25,2.125l6-9.375l-3.5-8.417l-4.166-1.333l-8.666,2.333L455,181.333l-3.666,8.167l-2,6.5l4.834,6.167L458,201.708
		z M494.5,238.083l4.834,3.417l9.5-7.167l8-8l12.334-11.667l15-13l10.332-8.333l14.834-13.167l11.334-10l10.832-10l4.334-3.167
		l6.166-3.167l3.168,2.333L607.5,156l3.668-11l-1.668-5.333l-8.832-2.5l-15.168,9.167l-26.332,22.333l-29.834,24.5l-26.166,24
		l-9,11.5L494.5,238.083z M657.375,192.833l6.625-8.875l-0.75-8.375l-5.625-3.75l-12.375,6.75l-91.375,76.5l-6.125,13.125
		l2.75,8.625l4.5,0.625l4.75-4.875l12-12l13.5-12l17-15l21.25-18.5l16.75-14.875l8.5-7.625l7.625-2.125L657.375,192.833z"/>
</g>
<g id="dark2_copy" display="none">
	<path display="inline" fill="#FCEE21" d="M34.5,162.083l10.75,22.25l25.75,27l54.75,48.25l39,31.875l20.625,17.25l7.5,8.625
		l8.875,7.125l11.25,4.75l27.75,1.375l39.125-2.625l13.875,1.5l22.375,4.375l14.5,4.375l9.5,6.25l-3,7.25l-7.375,5.875l-8.375-2.25
		l-15.875-4.625l-13.125-3.25l-20.5-2l-27.125,1.75l-12,2.625l-7.582,1.334l-10.334,2.166l-11.666-4L168.668,323l-36.5-31.333
		l-24.5-21.833L77,242.958l-22.125-20.625l-20.25-22.75l-4.875-15.875l-0.625-12.5l3.125-9.25L34.5,162.083z M152,515.333l5,18
		l16,21.25l15.5,12L211,573c0,0,9.813-1.918,12.668-4c3,0.666,84.082-87.418,84.082-87.418l64-64.5l19.25-15l104,103.75l61.75,63.25
		l6.75,2.25l12,1.25l12-5l12.75-7.5l13.75-12.75l10.25-14.25l3.25-17.5l-3.75-18l-8.25,26.5l-19,20.25l-14,7.75l-10.5,3.25
		l-8.75-2.5l-21-16.25L415.563,407.958l-9.729-8.791l-6.378-6.967l9.046-7.617l20-13.75l16.375-10.625l12.625-5l13.375-4.625
		l18.5-3.75l22-1.375l17.875,0.5l36.125,6l5.625-1.5l9.125-4.25l8.375-6.25l8.375-6l9.25-7.375l11.75-9.375l9.875-8.5l18-15.208
		l21.332-18.667l47.25-42.083L729,219.083l9.75-9.25l9.5-15.25l2.25-16.25c0,0-8-27.5-6.75-17S732.668,188.5,732.668,188.5
		l-7.334,7.667L691.668,226.5l-29.334,24.667l-15.666,15.167l-36.168,30L591,313.167l-8.166,7.5l-9.834,7l-18.332,2.666L522,329
		l-29-1l-20.25,4.332l-11.916,1.834l-40,22l-33,29.166L335,437.167l-14.75,13.791l-51.875,52.625l-22.5,22.75l-19.25,20.125
		l-10,5.875l-9.875,2.625l-14.375-5.125l-12.75-8.75l-11.875-14l-13-21.75L152,515.333z"/>
</g>
<g id="dark1_copy_2" display="none">
	<path display="inline" fill="#F2F2F2" d="M120.334,194l-3.5-4.833L114,182l1.5-5.333c0,0,4.334-2.667,11.168-2.167
		S209.5,239,209.5,239l17.334,13.667l6,8.333l1.332,6.333l-2.332,4l-4,4.667l-3.168-1.833l-9.332-9.833l-11.834-9.667l-12.166-10.5
		l-11-8.667l-10.834-9.667L158.834,218L147,208.167L138.668,201l-6.333-4.667l-3.833-3.667l-4-1.333l-2.5,1.5L120.334,194z
		 M176,156.833l2-2.167l3.668,0.833c0,0,93,75.666,98,82.333c2,2.167,4.5,1.333,4.5,1.333l3.332-3.833l1-7.333l-5-6.833
		c0,0-75.666-69.833-103.166-84c-10.334-4.5-12.5,5.833-12.5,5.833l3.5,10l3.666,4.667L176,156.833z M222.168,98.833l-5.5,7.5
		l2,6.667l4.332,6c0,0,3.334-2.333,6-2c2.668,0.333,34.5,28,34.5,28s27.834,22.5,33.168,26.667s27.332,24.5,27.332,24.5l3.168,2.833
		l1.332,3l5.5-2.333c0,0,5.168-1.833,1.668-12.833S228,98.833,228,98.833H222.168z M458,201.708l33-31.625l37.875-32.375
		l26.375-21.875l5.25,2.125l6-9.375l-3.5-8.417l-4.166-1.333l-8.666,2.333L455,181.333l-3.666,8.167l-2,6.5l4.834,6.167L458,201.708
		z M494.5,238.083l4.834,3.417l9.5-7.167l8-8l12.334-11.667l15-13l10.332-8.333l14.834-13.167l11.334-10l10.832-10l4.334-3.167
		l6.166-3.167l3.168,2.333L607.5,156l3.668-11l-1.668-5.333l-8.832-2.5l-15.168,9.167l-26.332,22.333l-29.834,24.5l-26.166,24
		l-9,11.5L494.5,238.083z M657.375,192.833l6.625-8.875l-0.75-8.375l-5.625-3.75l-12.375,6.75l-91.375,76.5l-6.125,13.125
		l2.75,8.625l4.5,0.625l4.75-4.875l12-12l13.5-12l17-15l21.25-18.5l16.75-14.875l8.5-7.625l7.625-2.125L657.375,192.833z"/>
</g>
<g id="dark2_copy_2" display="none">
	<path display="inline" fill="#F2F2F2" d="M34.5,162.083l10.75,22.25l25.75,27l54.75,48.25l39,31.875l20.625,17.25l7.5,8.625
		l8.875,7.125l11.25,4.75l27.75,1.375l39.125-2.625l13.875,1.5l22.375,4.375l14.5,4.375l9.5,6.25l-3,7.25l-7.375,5.875l-8.375-2.25
		l-15.875-4.625l-13.125-3.25l-20.5-2l-27.125,1.75l-12,2.625l-7.582,1.334l-10.334,2.166l-11.666-4L168.668,323l-36.5-31.333
		l-24.5-21.833L77,242.958l-22.125-20.625l-20.25-22.75l-4.875-15.875l-0.625-12.5l3.125-9.25L34.5,162.083z M152,515.333l5,18
		l16,21.25l15.5,12L211,573c0,0,9.813-1.918,12.668-4c3,0.666,84.082-87.418,84.082-87.418l64-64.5l19.25-15l104,103.75l61.75,63.25
		l6.75,2.25l12,1.25l12-5l12.75-7.5l13.75-12.75l10.25-14.25l3.25-17.5l-3.75-18l-8.25,26.5l-19,20.25l-14,7.75l-10.5,3.25
		l-8.75-2.5l-21-16.25L415.563,407.958l-9.729-8.791l-6.378-6.967l9.046-7.617l20-13.75l16.375-10.625l12.625-5l13.375-4.625
		l18.5-3.75l22-1.375l17.875,0.5l36.125,6l5.625-1.5l9.125-4.25l8.375-6.25l8.375-6l9.25-7.375l11.75-9.375l9.875-8.5l18-15.208
		l21.332-18.667l47.25-42.083L729,219.083l9.75-9.25l9.5-15.25l2.25-16.25c0,0-8-27.5-6.75-17S732.668,188.5,732.668,188.5
		l-7.334,7.667L691.668,226.5l-29.334,24.667l-15.666,15.167l-36.168,30L591,313.167l-8.166,7.5l-9.834,7l-18.332,2.666L522,329
		l-29-1l-20.25,4.332l-11.916,1.834l-40,22l-33,29.166L335,437.167l-14.75,13.791l-51.875,52.625l-22.5,22.75l-19.25,20.125
		l-10,5.875l-9.875,2.625l-14.375-5.125l-12.75-8.75l-11.875-14l-13-21.75L152,515.333z"/>
</g>
<g id="main-color_white" display="none">
	<path display="inline" fill="#F2F2F2" d="M40.668,149l13-8.333l11.332-5L77.334,131l16-5l15-8L126,108l11.668-7.333l18.666-11
		L167,80l9.668-8.667l11-9L200.334,51L211,46l7.668-3.333l16.332,3L245.334,53l11,8.667L270,77l17.334,15.333l11.666,11l14,15
		L331,135l18,21.333L361,172l6.334,12.333l-1,18v17l3,26L376,269l7.334,18.667l4.332,10L387,305l-16.332,18l-27,23.332l-3.354-3.438
		l-6-2l-5.938-2.688l-9.625-3l-7-2.875l-8.063-1.875l-8.188-1.5l-12.063-0.875L256.418,329l-13.5,1.332l-34.418-1.5l-14.832-11.5
		l-4.75-5.332l-21.25-17.668l-6.5-4.5l-8.5-8l-10.168-8l-16.75-14.25l-17.5-14.75l-8.75-9l-9.75-7.5l-8.5-8.25L71,211.333l-11-9.75
		l-8.5-8l-8-12.5l-5-6.5l-2.75-7.5L40.668,149z M123.668,197.5l10,7.833L145.834,215l17.5,13.833l12.5,11.167L203,261.5l9,9.5
		l7.834,4.667l3.416,1.167c0,0,2.834,0.5,4.25-1.75c-0.856-0.738,4.598-1.428,5.216-2.501c3.871-6.723-5.716-23.249-42.082-48.196
		c3.467,0.125-21.966-16.957-32.487-25.691c-10.521-8.735-35.303-26.087-35.679-26.251C104.125,179.958,123.668,197.5,123.668,197.5
		z M174,157.333l-5.332-5.667l0.332-8.5l4-4.833l8.668,0.667l9.666,7l33,25l29.334,25.333l29,23.667L288,232.667l-8.332,6H270
		l-12.666-10.333L236,208.667l-25.666-20.333l-23-19.667L174,157.333z M238.668,134l37,30.333l23.332,18l21,19h7.668l6-4.333
		l2-8.333L331,181.333L230.668,101L221,100l-4.332,6.333L219,114L238.668,134z M445.5,361.583l-17.5,10.75l-17.5,12.5l-10.25,8.5
		l105.125,105.375l13.5,13.75l21.375,22.75l14.5,14.25l11.875,4.5l10.25,0.375l6.5-2.375l11.625-7l15-13.375l6.375-9.5l7.125-22.25
		v-12.5L453,357.833L445.5,361.583z M157.334,507l7.332,17.332L176,537l13.668,12L201,553.667l11,1L223.334,549l9.666-9l8.334-8
		l23-25.168l29.5-28.332L335,437.167l27.168-28l9.582-8.584l25-24l25.5-20.75l13.75-9.75l22-10.25l14.75-3.5l25.25-4l16.5,0.75
		l21.5,1.75l25.25,0.25l13.25-3.75L581,323l15.334-13.668l14.334-13.666L633,277.333l13.668-11l9.582-8.75l19.875-17.875l17-14.875
		l17.875-14.5l11.75-11.375l9.918-10.458l8.334-13.833l3.5-11.5L743.168,155l-4.834-7.667l-9.166-5.5l-7.5-4.667l-12.334-3.667
		l-12.832-2.833L688.334,124l-13.084-4.417L659,108.833l-14-5.5l-9.5-8l-10.25-8.25L611,77.833l-13.25-10.75l-9-8.25L577,50.083
		l-14.75-7.75l-13.75,0.75l-10.5,5l-6.25,5.75l-9,9.5l-10.25,11.5l-12.75,11.25l-11.25,10.75l-15.25,13l-8.75,10.5l-10.75,9.75
		l-13.5,13.75l-12.5,14.5l-10.25,16l-4.25,10.75c0,0-0.5,16.25,0.25,18.75s-0.25,17.5-0.25,17.5l-4,32.25l-5.5,21.25l-6.5,14
		L386.5,307l-10.832,10.5l-12,11.166l-10.5,9.666l-10.334,8.5L332.168,355l-6.334,6.166L315,368.333L302.334,379l-16,13
		l-18.668,13.666l-15,11.666l-12.666,9l-16.668,11l-14.332,10l-9.668,8.334l-15.666,8.666l-3.668,6l-8,5l-7.33,4.668L159,485.333
		L156.334,494L157.334,507z M583,230.333l-15.5,12l-14.5,16.25l-4.5,8.25l3,8.75l9.5,3l10.75-6.5l8-9.5l10-8.25l8.5-8l15-13.75
		l19.75-16.75l20.25-17.75l9.5-9.75l1-9l-3.25-6H651l-9.25,7l-12,10.25l-19,16.5l-13.75,12L583,230.333z M498.75,221.833l15.5-13.75
		l17.5-16.5l15.75-12.5l13-12.25l17.5-14.5l16.5-12.5l9.25-3l6.25,5.5l0.75,6.5l-6.75,8.75l-4.5,5.25l-7.5,6.5l-12,11.5l-10,8
		l-5.25,4.25l-6.75,6l-5.75,4.75l-7.75,7.25l-4.25,4.5l-6.25,5l-4.25,4l-6.25,5.75l-7.75,6.5l-6.25,3.75h-9.75l-5.25-2.5l-0.75-6
		l2-6L498.75,221.833z M450.25,188.333l-0.75,8.25l4,5l5.25,1.5l6.5-1.25l8-4.5l5.25-5l7-8l19.25-17.25l26-22l21.5-18.75l12.5-13.5
		l2-9.25l-6.5-4.25l-6.25-1.25l-94,79L450.25,188.333z"/>
</g>
<g id="paths" display="none">
	<path display="inline" d="M389,296.333c7.276-11.001,13.065-25.127,17-40c3.899-14.739,6.619-32.482,6-50
		c-0.22-6.207-2.63-13.551-2-20c1.389-14.2,19.905-35.066,29-45c24.711-26.991,47.129-45.128,74-72
		c11.165-11.165,26.272-29.357,43-30c18.934-0.728,33.921,17.217,45,27c29.568,26.107,51.726,39.019,88,56
		c15.066,7.053,38.357,12.527,49,22c8.854,7.879,17.474,25.523,14,43c-3.328,16.752-27.11,38.188-39,49
		c-40.169,36.529-74.037,67.154-119,101c-8.104,6.102-18.577,16.088-27,17c-8.775,0.951-21.028-4.57-33-6
		c-29.691-3.543-55.584-0.178-77,9c10.916,11.654,25.604,21.85,40,33c34.705,26.885,69.181,51.75,107,79
		c7.448,5.367,18.179,10.945,21,16c3.177,5.689,5.302,19.646,5,28c-0.763,21.172-13.291,36.127-29,48
		c-9.544,7.215-24.132,14.865-37,13c-16.2-2.346-34.757-30.164-45-41c-42.264-44.705-83.949-87.873-128-129
		c-9.159,4.867-15.736,13.107-23,20c-43.434,41.227-83.521,85.863-127,131c-6.752,7.01-15.633,17.492-23,19
		c-26.483,5.426-56.021-25.717-63-40c-6.42-13.141-6.934-35.605,1-49c3.316-5.6,12.124-11.395,20-17
		c49.995-35.58,102.555-72.67,148-111c-21.295-8.686-46.992-12.791-78-9c-11.588,1.418-23.08,6.617-32,6
		c-9.07-0.627-19.747-10.779-28-17c-43.737-32.971-79.974-64.811-120-102c-13.598-12.633-34.913-30.527-38-50
		c-5.182-32.692,19.423-46.758,43-55c45.319-15.842,82.739-40.858,115-70c12.103-10.932,27.588-27.657,50-18
		c12.524,5.396,26.299,22.298,37,33c23.407,23.407,45.805,42.552,69,69c11.159,12.723,26.355,27.217,28,41
		c0.748,6.264-1.681,13.046-2,19C366.062,240.552,378.397,270.031,389,296.333z M363,207.333c0.15-6.708,2.936-14.383,2-21
		c-0.845-5.979-6.801-14.932-12-22c-24.739-33.638-57.413-59.642-86-88c-12.191-12.095-24.684-27.373-39-31
		c-6.016-1.524-9.107-0.871-12,0c-20.49,6.167-37.647,29.668-56,43c-15.188,11.035-41.384,26.641-60,36
		c-14.427,7.253-38.134,12.715-51,21c-28.973,18.658,8.102,50.305,23,64c16.021,14.726,31.229,28.211,45,40
		c22.382,19.16,47.425,38.248,69,58c8.566,7.842,14.619,16.018,24,19c17.596,5.598,42.976-1.104,65-1
		c14.586,0.068,27.548,3.107,40,5c6.873-32.127,27.524-50.475,59-58C367.82,252.359,362.482,230.468,363,207.333z M495,325.333
		c24.015-1.492,54.202,7.596,76,1c5.92-1.791,13.638-9.506,21-16c34.189-30.147,67.313-57.833,99-86
		c13.491-11.993,28.399-23.036,39-36c5.494-6.719,13.628-18.955,12-29c-2.848-17.585-30.827-21.312-45-27
		c-17.98-7.218-33.998-17.266-47-25c-16.063-9.555-30.286-18.058-43-29c-13.038-11.223-26.95-27.655-41-32
		c-22.346-6.911-37.597,15.845-52,30c-24.347,23.927-47.34,43.082-70,68c-12.368,13.602-25.815,28.017-28,42
		c-1.4,8.979,1.791,23.201,1,35c-1.272,19-6.002,35.99-11,51c31.397,7.603,52.481,25.519,59,58
		C475.07,328.592,483.959,326.018,495,325.333z M70,233.333c24.28,22.051,45.838,41.117,69,61c16.275,13.971,29.814,25.533,48,39
		c9.48,7.021,19.535,16.385,27,17c5.407,0.445,13.414-2.75,21-4c33.148-5.457,68.123-2.98,93,8c3.954-3.047,8.709-5.291,11-10
		c-17.482-8.168-35.457-14.393-60-15c-24.507-0.605-52.232,7.125-71,1c-8.906-2.906-14.184-10.994-23-19
		c-6.909-6.275-14.776-12.658-21-18c-30.515-26.193-56.317-47.091-85-73c-18.359-16.584-37.212-30.15-45-53
		c-0.057-0.61-0.148-1.184-1-1C26.532,198.328,50.843,215.934,70,233.333z M732,192.333c-10.9,12.649-25.434,23.26-39,35
		c-32.394,28.031-68.016,57.483-100,87c-7.826,7.225-15.282,14.158-22,16c-18.602,5.102-44.332-1.299-69-1
		c-38.133,0.465-68.305,17.605-92,38c-24.238,20.863-47.079,44.188-67,64c-31.399,31.232-65.022,64.715-97,98
		c-11.779,12.262-24.392,27.094-39,27c-14.397-0.092-30.859-14.783-40-26c-5.312-6.518-8.607-13.967-12-22
		c0.387,10.801,1.927,19.488,6,27c7.235,13.342,33.55,38.533,55,35c11.184-1.842,27.621-23.328,35-31
		c6.695-6.959,14.141-14.65,20-21c37.425-40.551,67.617-72.066,107-109c19.65-18.428,40-36.637,60-48
		c34.019-19.326,81.575-23.922,129-11c33.454-19.859,65.137-47.561,98-76c14.771-12.781,29.653-25.995,46-41
		c16.986-15.592,43.13-37.299,35-66C743.14,175.764,738.591,184.688,732,192.333z M376,276.333c-31.315,6.351-51.582,23.751-57,56
		c9.209,2.125,15.557,7.111,24,10c14.658-13.674,31.895-24.773,43-42C382.298,292.702,378.138,285.528,376,276.333z M404,279.333
		c-6.467,21.015-18.613,32.195-34,46c-28.854,25.891-58.569,50.281-89,73c-28.746,21.465-61.276,47.137-92,69
		c-9.559,6.803-28.122,15.875-30,24c-1.661,7.197,1.599,18.336,4,24c6.744,15.902,30.125,37.785,46,37
		c10.996-0.543,23.137-13.797,32-23c46.985-48.777,91.265-94.471,139-139c25.664-23.939,46.581-47.607,81-58
		c-5.594-31.406-25.433-48.567-55-56C404.743,276.743,403.956,277.623,404,279.333z M536,426.333c-28.273-21.342-56.84-42.586-84-65
		c-1.003,0.004-1.189-0.809-2-1c-17.537,9.463-34.291,19.709-47,34c39.367,36.141,83.267,82.266,124,123
		c11.879,11.879,29.848,36.967,47,36c3.757-0.211,12.715-5.4,18-9c17.697-12.051,29.373-28.246,29-55
		C594.002,466.696,564.272,447.674,536,426.333z M618,524.333c-7.215,12.094-31.073,35.082-50,32c-16.142-2.627-33.469-25.469-45-37
		c-22.666-22.666-40.688-41.689-61-62c-20.713-20.713-41.533-42.85-62-61c-0.212-1.209-1.108-0.615-2,0c-0.98,1.352-2.668,2-4,3
		c-0.502,5.52,5.724,7.023,9,10c3.518,3.195,6.582,7.582,10,11c42.815,42.816,85.323,84.961,127,130
		c6.883,7.439,15.078,18.453,23,20c17.819,3.482,37.688-12.242,48-24c8.596-9.799,15.632-22.666,13-39
		C622.423,513.682,621.049,519.225,618,524.333z"/>
	<path display="inline" d="M649,171.333c7.386-5.293,17.671-0.478,18,9c0.375,10.736-17.3,22.817-24,29
		c-17.367,16.029-38.012,32.946-56,49c-8.563,7.644-19.89,22.595-30,22c-3.043-0.179-8.263-3.031-9-4
		c-9.967-13.097,8.823-26.706,16-33C592.607,218.244,619.784,194.04,649,171.333z M660.648,187.375
		c5.262-8.424-2.215-15.189-8.648-11.042c-16.469,10.613-34.705,27.368-55,45c-8.573,7.45-18.283,15.448-27,23
		c-3.723,3.226-8.678,7.561-12.741,12.008c-1.439,1.576-5.773,6.741-6.782,8.495c-1.016,1.766-1.654,3.973-0.638,6.434
		c0.872,2.121,4.069,4.537,5.083,3.853c2.776-1.88,7.774-7.628,10.078-9.789c4.038-3.787,8.123-7.205,12-11
		c9.993-9.782,33.861-30.204,37.651-33.401c6.924-5.84,19.963-16.798,28.861-25.087c3.181-2.963,8.8-8.699,11.739-7.791
		c0.419,0.191,0.828,0.404,1.237,0.585c1.704,0.914,2.116,0.917,2.65,0.474C659.368,188.922,660.45,187.692,660.648,187.375z
		 M654.984,193.083c-0.344-1.094-0.666-2.153-2.958-0.837c-0.988,0.566-32.713,28.346-47.026,41.087
		c-8.744,7.784-17.896,15.123-26.668,22.843c-7.174,6.314-14.094,12.882-20.332,20.157c10.648-3.149,16.988-12.811,25-20
		c19.95-17.901,41.178-35.675,60-53c1.73-1.593,3.778-3.085,5.568-4.595C649.643,197.832,654.598,193.825,654.984,193.083z"/>
	<path display="inline" d="M595.668,135.333c7.385-5.293,17.67-0.478,18,9c0.373,10.736-17.301,22.817-24,29
		c-17.368,16.029-38.013,32.946-56,49c-8.564,7.644-19.891,22.595-30,22c-3.043-0.179-8.264-3.031-9-4
		c-9.968-13.097,8.822-26.706,16-33C539.274,182.244,566.451,158.04,595.668,135.333z M607.315,151.375
		c5.262-8.424-2.215-15.189-8.647-11.042c-16.47,10.613-34.706,27.368-55,45c-8.574,7.45-18.284,15.448-27,23
		c-3.724,3.226-8.679,7.561-12.742,12.008c-1.439,1.576-5.773,6.741-6.782,8.495c-1.017,1.766-1.654,3.973-0.638,6.434
		c0.871,2.121,4.069,4.537,5.083,3.853c2.776-1.88,7.774-7.628,10.079-9.789c4.037-3.787,8.122-7.205,12-11
		c9.992-9.782,33.86-30.204,37.65-33.401c6.924-5.84,19.963-16.798,28.861-25.087c3.181-2.963,8.8-8.698,11.739-7.791
		c0.419,0.191,0.828,0.404,1.237,0.585c1.704,0.914,2.116,0.917,2.65,0.474C606.035,152.922,607.117,151.692,607.315,151.375z
		 M601.651,157.083c-0.344-1.094-0.666-2.153-2.958-0.837c-0.988,0.566-32.713,28.346-47.025,41.087
		c-8.745,7.784-17.896,15.123-26.668,22.843c-7.175,6.314-14.095,12.882-20.332,20.157c10.647-3.149,16.987-12.812,25-20
		c19.949-17.901,41.177-35.675,60-53c1.729-1.593,3.777-3.085,5.567-4.595C596.31,161.832,601.265,157.825,601.651,157.083z"/>
	<path display="inline" d="M551,96.667c7.386-5.293,17.671-0.478,18,9c0.375,10.736-17.3,22.817-24,29
		c-17.367,16.029-38.012,32.946-56,49c-8.563,7.644-19.89,22.595-30,22c-3.043-0.179-8.263-3.031-9-4
		c-9.967-13.097,8.823-26.706,16-33C494.607,143.577,521.784,119.373,551,96.667z M562.648,112.709
		c5.262-8.424-2.215-15.189-8.648-11.042c-16.469,10.613-34.705,27.368-55,45c-8.573,7.45-18.283,15.448-27,23
		c-3.723,3.226-8.678,7.561-12.741,12.008c-1.439,1.576-5.773,6.741-6.782,8.495c-1.016,1.766-1.654,3.973-0.638,6.434
		c0.872,2.121,4.069,4.537,5.083,3.853c2.776-1.88,7.774-7.628,10.078-9.789c4.038-3.787,8.123-7.205,12-11
		c9.993-9.782,33.861-30.204,37.651-33.401c6.924-5.84,19.963-16.798,28.861-25.086c3.181-2.963,8.8-8.699,11.739-7.791
		c0.419,0.191,0.828,0.404,1.237,0.585c1.704,0.914,2.116,0.917,2.65,0.473C561.368,114.255,562.45,113.026,562.648,112.709z
		 M556.984,118.417c-0.344-1.094-0.666-2.153-2.958-0.837c-0.988,0.567-32.713,28.346-47.026,41.087
		c-8.744,7.784-17.896,15.123-26.668,22.843c-7.174,6.314-14.094,12.882-20.332,20.157c10.648-3.149,16.988-12.811,25-20
		c19.95-17.901,41.178-35.675,60-53c1.73-1.593,3.778-3.085,5.568-4.595C551.643,123.166,556.598,119.159,556.984,118.417z"/>
	<path display="inline" d="M319.201,167.215c7.347,6.096,26.502,19.184,16.898,32.549c-0.711,0.988-5.85,3.983-8.886,4.245
		c-10.091,0.872-21.821-13.763-30.593-21.169c-18.421-15.555-39.521-31.898-57.322-47.447c-6.867-5.996-24.865-17.589-24.786-28.331
		c0.069-9.484,10.219-14.58,17.747-9.491C262.087,119.469,289.916,142.919,319.201,167.215z M222.61,115.622
		c0.546,0.43,0.958,0.416,2.636-0.545c0.404-0.192,0.809-0.416,1.223-0.619c2.913-0.988,8.688,4.591,11.947,7.467
		c9.123,8.042,22.459,18.64,29.539,24.287c3.875,3.091,28.295,22.853,38.554,32.356c3.979,3.688,8.157,6.991,12.297,10.667
		c2.362,2.097,7.516,7.705,10.344,9.508c1.031,0.657,4.161-1.847,4.976-3.99c0.948-2.488,0.25-4.676-0.814-6.414
		c-1.057-1.725-5.53-6.77-7.012-8.306c-4.187-4.334-9.258-8.532-13.067-11.654c-8.919-7.31-18.845-15.04-27.621-22.251
		c-20.769-17.069-39.459-33.318-56.213-43.475c-6.544-3.969-13.833,2.999-8.342,11.275
		C221.262,114.239,222.378,115.439,222.61,115.622z M233.441,124.956c1.831,1.459,3.92,2.895,5.693,4.44
		c19.291,16.802,40.997,33.987,61.431,51.335c8.205,6.966,14.808,16.45,25.538,19.307c-6.436-7.101-13.533-13.479-20.877-19.592
		c-8.979-7.478-18.329-14.563-27.284-22.104c-14.657-12.344-47.131-39.243-48.135-39.783c-2.327-1.253-2.62-0.185-2.935,0.918
		C227.28,120.209,232.344,124.079,233.441,124.956z"/>
	<path display="inline" d="M270.701,205.215c7.347,6.096,26.502,19.184,16.898,32.549c-0.711,0.988-5.852,3.983-8.887,4.245
		c-10.091,0.872-21.821-13.763-30.593-21.169c-18.422-15.555-39.521-31.898-57.321-47.447c-6.867-5.996-24.865-17.589-24.786-28.331
		c0.068-9.483,10.22-14.579,17.747-9.49C213.587,157.469,241.416,180.919,270.701,205.215z M174.109,153.622
		c0.547,0.43,0.959,0.416,2.637-0.545c0.404-0.192,0.81-0.416,1.224-0.619c2.912-0.988,8.688,4.591,11.946,7.467
		c9.123,8.042,22.457,18.64,29.539,24.287c3.875,3.091,28.295,22.853,38.554,32.356c3.979,3.688,8.155,6.991,12.297,10.667
		c2.36,2.097,7.516,7.705,10.344,9.508c1.031,0.657,4.161-1.847,4.976-3.99c0.948-2.488,0.25-4.676-0.813-6.414
		c-1.057-1.725-5.53-6.77-7.013-8.306c-4.187-4.334-9.258-8.532-13.066-11.654c-8.92-7.31-18.846-15.04-27.621-22.251
		c-20.769-17.069-39.459-33.318-56.213-43.475c-6.544-3.97-13.833,2.999-8.342,11.274
		C172.762,152.239,173.878,153.439,174.109,153.622z M184.941,162.956c1.831,1.459,3.92,2.895,5.693,4.44
		c19.291,16.802,40.996,33.987,61.43,51.335c8.205,6.966,14.809,16.45,25.539,19.307c-6.436-7.101-13.533-13.479-20.877-19.592
		c-8.98-7.478-18.329-14.563-27.285-22.104c-14.656-12.344-47.131-39.243-48.135-39.783c-2.326-1.253-2.619-0.185-2.935,0.918
		C178.78,158.209,183.844,162.079,184.941,162.956z"/>
	<path display="inline" d="M216.701,241.715c7.347,6.096,26.502,19.184,16.898,32.549c-0.711,0.988-5.852,3.983-8.887,4.245
		c-10.091,0.872-21.821-13.763-30.593-21.169c-18.422-15.555-39.521-31.898-57.321-47.447c-6.867-5.996-24.865-17.589-24.786-28.33
		c0.068-9.484,10.22-14.58,17.747-9.491C159.587,193.969,187.416,217.419,216.701,241.715z M120.109,190.122
		c0.547,0.43,0.959,0.416,2.637-0.545c0.404-0.192,0.81-0.416,1.224-0.619c2.912-0.988,8.688,4.591,11.946,7.467
		c9.123,8.042,22.457,18.64,29.539,24.287c3.875,3.091,28.295,22.853,38.554,32.356c3.979,3.688,8.155,6.991,12.297,10.667
		c2.36,2.097,7.516,7.705,10.344,9.508c1.031,0.657,4.161-1.847,4.975-3.99c0.949-2.488,0.25-4.676-0.813-6.414
		c-1.057-1.725-5.53-6.77-7.013-8.306c-4.187-4.334-9.259-8.532-13.066-11.654c-8.92-7.31-18.846-15.04-27.621-22.251
		c-20.769-17.069-39.459-33.318-56.213-43.475c-6.544-3.97-13.833,2.999-8.342,11.274
		C118.762,188.739,119.878,189.939,120.109,190.122z M130.941,199.456c1.831,1.459,3.92,2.895,5.693,4.44
		c19.291,16.802,40.996,33.987,61.43,51.335c8.205,6.966,14.809,16.45,25.539,19.307c-6.436-7.102-13.533-13.479-20.877-19.592
		c-8.98-7.478-18.329-14.563-27.285-22.104c-14.656-12.344-47.131-39.243-48.135-39.783c-2.326-1.253-2.619-0.185-2.935,0.918
		C124.78,194.709,129.844,198.579,130.941,199.456z"/>
</g>
<g id="dark2_copy_3">
	<path stroke="#000000" d="M8.143,218.321l2.75,5.454l6.586,6.619l14.003,11.827l9.975,7.814l5.275,4.229l1.918,2.114l2.271,1.747
		l2.877,1.164l7.098,0.337l10.007-0.643l3.549,0.366l5.724,1.073l3.708,1.072l2.43,1.532l-0.768,1.777l-1.887,1.44l-2.142-0.551
		l-4.061-1.135l-3.356-0.796l-5.243-0.49l-6.938,0.429l-3.069,0.643l-1.94,0.327l-2.643,0.532l-2.984-0.98l-8.823-6.455
		l-9.337-7.682l-6.266-5.353l-7.844-6.588l-5.659-5.057l-5.18-5.577l-1.246-3.892l-0.16-3.064l0.799-2.268L8.143,218.321z
		 M38.197,304.917l1.278,4.412l4.093,5.209l3.964,2.939l5.755,1.574c0,0,2.511-0.471,3.24-0.98
		c0.769,0.164,21.506-21.43,21.506-21.43l16.37-15.81l4.923-3.677l26.602,25.432l15.794,15.506l1.727,0.553l3.069,0.305l3.069-1.225
		l3.261-1.84l3.517-3.125l2.622-3.492l0.831-4.289l-0.959-4.414l-2.11,6.496l-4.858,4.965l-3.581,1.9l-2.687,0.795l-2.237-0.611
		l-5.371-3.984l-32.403-31.53l-2.489-2.155l-1.631-1.708l2.313-1.867l5.116-3.371l4.188-2.605l3.229-1.225l3.421-1.134l4.731-0.918
		l5.627-0.337l4.572,0.123l9.24,1.471l1.438-0.368l2.334-1.041l2.143-1.532l2.142-1.471l2.366-1.809l3.005-2.298l2.526-2.083
		l4.604-3.729l5.456-4.576l12.085-10.316l3.751-3.35l2.494-2.268l2.43-3.739l0.575-3.983c0,0-2.046-6.74-1.727-4.167
		c0.319,2.574-2.834,6.659-2.834,6.659l-1.875,1.88l-8.611,7.437l-7.503,6.046l-4.007,3.718l-9.25,7.354l-4.988,4.127l-2.088,1.838
		l-2.515,1.715l-4.689,0.654l-8.354-0.327l-7.419-0.246l-5.179,1.062l-3.048,0.449l-10.23,5.394l-8.44,7.149l-13.514,12.707
		l-3.772,3.381l-13.268,12.902l-5.755,5.576l-4.925,4.934l-2.557,1.439l-2.526,0.643l-3.677-1.256l-3.261-2.145l-3.037-3.432
		l-3.325-5.334L38.197,304.917z"/>
</g>
<g id="paths_copy">
	<path d="M98.815,251.231c1.861-2.698,3.342-6.16,4.348-9.806c0.998-3.613,1.693-7.963,1.535-12.257
		c-0.057-1.522-0.673-3.322-0.512-4.902c0.354-3.48,5.091-8.596,7.417-11.031c6.32-6.616,12.054-11.063,18.927-17.65
		c2.856-2.737,6.72-7.197,10.999-7.354c4.842-0.18,8.676,4.221,11.51,6.618c7.563,6.4,13.229,9.565,22.509,13.729
		c3.854,1.729,9.811,3.071,12.532,5.393c2.266,1.933,4.47,6.256,3.581,10.541c-0.852,4.106-6.935,9.362-9.975,12.013
		c-10.274,8.954-18.938,16.461-30.438,24.759c-2.072,1.496-4.752,3.943-6.905,4.167c-2.245,0.232-5.379-1.12-8.441-1.472
		c-7.594-0.868-14.217-0.043-19.694,2.206c2.792,2.857,6.549,5.355,10.231,8.091c8.876,6.59,17.694,12.686,27.368,19.364
		c1.905,1.316,4.648,2.683,5.371,3.921c0.813,1.396,1.355,4.816,1.278,6.865c-0.194,5.189-3.399,8.855-7.417,11.768
		c-2.44,1.768-6.172,3.643-9.464,3.186c-4.144-0.574-8.89-7.395-11.51-10.049c-10.81-10.961-21.472-21.542-32.739-31.625
		c-2.343,1.193-4.024,3.213-5.883,4.902c-11.108,10.106-21.362,21.048-32.482,32.113c-1.728,1.719-3.999,4.289-5.884,4.658
		c-6.773,1.33-14.329-6.305-16.114-9.807c-1.642-3.221-1.772-8.729,0.257-12.012c0.848-1.371,3.101-2.793,5.115-4.167
		c12.786-8.722,26.229-17.813,37.854-27.21c-5.447-2.128-12.02-3.135-19.951-2.205c-2.964,0.347-5.903,1.621-8.185,1.471
		c-2.32-0.154-5.051-2.644-7.162-4.167c-11.188-8.083-20.456-15.887-30.693-25.003c-3.478-3.098-8.93-7.483-9.719-12.257
		c-1.325-8.016,4.968-11.463,10.999-13.482c11.591-3.884,21.162-10.016,29.414-17.16c3.095-2.679,7.056-6.78,12.788-4.412
		c3.204,1.323,6.727,5.466,9.464,8.089c5.986,5.738,11.715,10.432,17.647,16.915c2.854,3.119,6.741,6.673,7.162,10.052
		c0.191,1.534-0.43,3.197-0.512,4.657C92.948,237.557,96.103,244.784,98.815,251.231z M92.165,229.413
		c0.039-1.645,0.751-3.525,0.513-5.146c-0.216-1.466-1.739-3.66-3.069-5.394c-6.328-8.245-14.685-14.621-21.997-21.572
		c-3.119-2.965-6.313-6.71-9.975-7.599c-1.539-0.374-2.33-0.214-3.069,0c-5.241,1.511-9.629,7.271-14.323,10.541
		c-3.885,2.705-10.585,6.531-15.347,8.825c-3.69,1.776-9.753,3.115-13.044,5.146c-7.41,4.574,2.071,12.332,5.883,15.689
		c4.098,3.609,7.988,6.915,11.51,9.805c5.726,4.697,12.131,9.376,17.649,14.218c2.19,1.922,3.739,3.926,6.138,4.658
		c4.5,1.373,10.992-0.27,16.625-0.246c3.73,0.018,7.046,0.762,10.23,1.228c1.758-7.876,7.041-12.374,15.091-14.219
		C93.397,240.451,92.032,235.085,92.165,229.413z M125.927,258.339c6.142-0.365,13.863,1.862,19.438,0.246
		c1.515-0.438,3.488-2.331,5.371-3.921c8.745-7.391,17.217-14.177,25.322-21.083c3.451-2.939,7.264-5.647,9.975-8.825
		c1.405-1.646,3.485-4.646,3.069-7.108c-0.729-4.312-7.885-5.225-11.51-6.618c-4.601-1.77-8.696-4.233-12.021-6.128
		c-4.107-2.344-7.747-4.428-10.998-7.109c-3.335-2.751-6.894-6.779-10.486-7.845c-5.717-1.694-9.616,3.885-13.301,7.354
		c-6.227,5.866-12.107,10.562-17.903,16.669c-3.164,3.334-6.604,6.868-7.162,10.296c-0.358,2.201,0.458,5.688,0.256,8.579
		c-0.326,4.658-1.535,8.822-2.813,12.502c8.031,1.863,13.424,6.255,15.092,14.219C120.83,259.139,123.103,258.508,125.927,258.339z
		 M17.223,235.787c6.21,5.406,11.724,10.079,17.647,14.953c4.163,3.425,7.625,6.259,12.277,9.561
		c2.425,1.722,4.997,4.018,6.906,4.167c1.383,0.109,3.431-0.674,5.371-0.979c8.478-1.338,17.424-0.731,23.787,1.96
		c1.011-0.747,2.227-1.296,2.813-2.452c-4.472-2.002-9.069-3.528-15.347-3.677c-6.269-0.148-13.36,1.746-18.16,0.246
		c-2.278-0.713-3.628-2.696-5.883-4.658c-1.768-1.539-3.779-3.104-5.371-4.413c-7.806-6.42-14.404-11.544-21.741-17.896
		c-4.696-4.064-9.519-7.391-11.51-12.99c-0.015-0.15-0.038-0.291-0.256-0.246C6.105,227.207,12.323,231.522,17.223,235.787z
		 M186.546,225.737c-2.789,3.1-6.506,5.7-9.977,8.579c-8.285,6.871-17.396,14.091-25.577,21.326
		c-2.002,1.771-3.908,3.472-5.627,3.923c-4.758,1.25-11.339-0.318-17.647-0.246c-9.753,0.113-17.471,4.315-23.531,9.314
		c-6.2,5.114-12.042,10.832-17.137,15.688c-8.032,7.655-16.631,15.864-24.811,24.022c-3.013,3.006-6.239,6.643-9.975,6.619
		c-3.684-0.021-7.895-3.623-10.231-6.373c-1.358-1.598-2.202-3.424-3.069-5.393c0.1,2.646,0.493,4.775,1.536,6.617
		c1.851,3.271,8.58,9.445,14.066,8.582c2.86-0.453,7.065-5.721,8.952-7.602c1.712-1.707,3.617-3.592,5.116-5.146
		c9.571-9.941,17.294-17.667,27.368-26.72c5.025-4.519,10.229-8.98,15.346-11.767c8.701-4.737,20.865-5.864,32.995-2.697
		c8.557-4.868,16.66-11.659,25.064-18.63c3.778-3.133,7.584-6.372,11.767-10.051c4.344-3.822,11.03-9.145,8.952-16.178
		C189.395,221.674,188.23,223.863,186.546,225.737z M95.49,246.328c-8.01,1.557-13.192,5.822-14.579,13.728
		c2.355,0.521,3.979,1.744,6.14,2.452c3.749-3.352,8.158-6.073,10.999-10.296C97.101,250.341,96.037,248.583,95.49,246.328z
		 M102.651,247.064c-1.654,5.15-4.761,7.893-8.696,11.274c-7.38,6.347-14.979,12.326-22.764,17.896
		c-7.352,5.261-15.672,11.555-23.531,16.914c-2.444,1.667-7.193,3.892-7.673,5.884c-0.425,1.764,0.409,4.494,1.023,5.883
		c1.725,3.896,7.705,9.262,11.766,9.07c2.813-0.135,5.917-3.385,8.186-5.641c12.017-11.957,23.343-23.157,35.552-34.072
		c6.563-5.87,11.914-11.672,20.718-14.22c-1.431-7.698-6.505-11.905-14.067-13.728C102.842,246.429,102.64,246.644,102.651,247.064z
		 M136.414,283.099c-7.231-5.231-14.537-10.438-21.484-15.934c-0.256,0-0.306-0.199-0.512-0.246
		c-4.486,2.32-8.771,4.832-12.021,8.335c10.069,8.859,21.297,20.167,31.715,30.153c3.039,2.912,7.634,9.061,12.021,8.824
		c0.96-0.053,3.252-1.324,4.604-2.205c4.526-2.955,7.513-6.926,7.417-13.482C151.249,292.993,143.645,288.33,136.414,283.099z
		 M157.387,307.122c-1.847,2.965-7.948,8.6-12.789,7.846c-4.128-0.645-8.561-6.244-11.51-9.07
		c-5.798-5.557-10.407-10.221-15.603-15.198c-5.298-5.078-10.624-10.504-15.857-14.953c-0.055-0.297-0.284-0.151-0.513,0
		c-0.251,0.331-0.682,0.489-1.022,0.734c-0.128,1.354,1.463,1.723,2.302,2.452c0.899,0.782,1.683,1.858,2.557,2.696
		c10.951,10.496,21.824,20.827,32.483,31.868c1.76,1.824,3.855,4.523,5.883,4.904c4.559,0.852,9.641-3.002,12.277-5.887
		c2.198-2.4,3.998-5.555,3.325-9.559C158.518,304.512,158.168,305.87,157.387,307.122z"/>
	<path d="M165.316,220.589c1.889-1.298,4.521-0.117,4.604,2.207c0.096,2.632-4.426,5.593-6.139,7.109
		c-4.442,3.929-9.723,8.076-14.323,12.011c-2.19,1.875-5.088,5.539-7.674,5.393c-0.777-0.043-2.112-0.742-2.302-0.979
		c-2.549-3.21,2.257-6.546,4.092-8.089C150.892,232.088,157.844,226.155,165.316,220.589z M168.296,224.521
		c1.346-2.064-0.566-3.724-2.212-2.707c-4.213,2.603-8.878,6.71-14.068,11.031c-2.193,1.827-4.677,3.787-6.906,5.639
		c-0.952,0.792-2.219,1.854-3.259,2.943c-0.368,0.387-1.478,1.652-1.734,2.082c-0.26,0.435-0.423,0.975-0.163,1.578
		c0.224,0.521,1.881,3.309,5.583-0.486c0.583-0.516,15.21-13.333,17.454-15.313c2.699-2.384,4.894-4.319,4.919-4.34
		C167.969,224.9,168.245,224.599,168.296,224.521z"/>
	<path d="M152.816,211.089c1.889-1.298,4.521-0.117,4.604,2.207c0.096,2.632-4.426,5.593-6.139,7.109
		c-4.442,3.929-9.723,8.076-14.323,12.011c-2.19,1.875-5.088,5.539-7.674,5.393c-0.777-0.043-2.112-0.742-2.302-0.979
		c-2.549-3.21,2.257-6.546,4.092-8.089C138.392,222.588,145.344,216.655,152.816,211.089z M155.796,215.021
		c1.346-2.064-0.566-3.724-2.212-2.707c-4.213,2.603-8.878,6.71-14.068,11.031c-2.193,1.827-4.677,3.787-6.906,5.639
		c-0.952,0.792-2.219,1.854-3.259,2.943c-0.368,0.387-1.478,1.652-1.734,2.082c-0.26,0.435-0.423,0.975-0.163,1.578
		c0.224,0.521,1.881,3.309,5.583-0.486c0.583-0.516,15.21-13.333,17.454-15.313c2.699-2.384,4.894-4.319,4.919-4.34
		C155.469,215.4,155.745,215.099,155.796,215.021z"/>
	<path d="M140.691,201.339c1.889-1.298,4.521-0.117,4.604,2.207c0.096,2.632-4.426,5.593-6.139,7.109
		c-4.442,3.929-9.723,8.076-14.323,12.011c-2.19,1.875-5.088,5.539-7.674,5.393c-0.777-0.043-2.112-0.742-2.302-0.979
		c-2.549-3.21,2.257-6.546,4.092-8.089C126.267,212.838,133.219,206.905,140.691,201.339z M143.671,205.271
		c1.346-2.064-0.566-3.724-2.212-2.707c-4.213,2.603-8.878,6.71-14.068,11.031c-2.193,1.827-4.677,3.787-6.906,5.639
		c-0.952,0.792-2.219,1.854-3.259,2.943c-0.368,0.387-1.478,1.652-1.734,2.082c-0.26,0.435-0.423,0.975-0.163,1.578
		c0.224,0.521,1.88,3.309,5.583-0.486c0.583-0.516,15.21-13.333,17.454-15.313c2.699-2.384,4.894-4.319,4.919-4.34
		C143.344,205.65,143.62,205.349,143.671,205.271z"/>
	<path d="M51.641,238.406c1.835,1.543,6.642,4.879,4.092,8.089c-0.188,0.238-1.524,0.937-2.302,0.979
		c-2.586,0.146-5.483-3.519-7.673-5.393c-4.602-3.935-9.882-8.082-14.324-12.011c-1.713-1.517-6.234-4.478-6.139-7.109
		c0.084-2.323,2.716-3.504,4.604-2.207C37.373,226.322,44.324,232.255,51.641,238.406z M27.307,225.114
		c0.025,0.021,2.22,1.957,4.919,4.34c2.243,1.98,16.871,14.797,17.454,15.313c3.703,3.794,5.359,1.007,5.583,0.486
		c0.26-0.604,0.097-1.144-0.163-1.578c-0.258-0.43-1.367-1.696-1.734-2.082c-1.04-1.09-2.307-2.152-3.259-2.943
		c-2.229-1.852-4.713-3.812-6.906-5.639c-5.189-4.321-9.854-8.429-14.068-11.032c-1.646-1.016-3.558,0.644-2.212,2.707
		C26.972,224.766,27.248,225.067,27.307,225.114z"/>
	<path d="M64.141,228.906c1.835,1.543,6.642,4.879,4.092,8.089c-0.188,0.238-1.524,0.937-2.302,0.979
		c-2.586,0.146-5.483-3.519-7.673-5.393c-4.602-3.935-9.881-8.082-14.324-12.011c-1.713-1.517-6.234-4.478-6.139-7.109
		c0.084-2.323,2.716-3.504,4.604-2.207C49.873,216.822,56.824,222.755,64.141,228.906z M39.807,215.614
		c0.025,0.021,2.22,1.957,4.919,4.34c2.243,1.98,16.871,14.797,17.454,15.313c3.703,3.794,5.359,1.007,5.583,0.486
		c0.26-0.604,0.097-1.144-0.163-1.578c-0.258-0.43-1.367-1.696-1.734-2.082c-1.04-1.09-2.307-2.152-3.259-2.943
		c-2.229-1.852-4.713-3.812-6.906-5.639c-5.189-4.321-9.854-8.429-14.067-11.032c-1.646-1.016-3.559,0.644-2.213,2.707
		C39.472,215.266,39.748,215.567,39.807,215.614z"/>
	<path d="M76.266,219.156c1.835,1.543,6.642,4.879,4.092,8.089c-0.188,0.238-1.524,0.937-2.302,0.979
		c-2.586,0.146-5.483-3.519-7.673-5.393c-4.602-3.935-9.881-8.082-14.324-12.011c-1.713-1.517-6.234-4.478-6.138-7.109
		c0.084-2.323,2.715-3.504,4.604-2.207C61.998,207.072,68.949,213.005,76.266,219.156z M51.932,205.864
		c0.026,0.021,2.22,1.957,4.919,4.34c2.243,1.98,16.871,14.797,17.454,15.313c3.703,3.794,5.359,1.007,5.583,0.486
		c0.26-0.604,0.097-1.144-0.163-1.578c-0.258-0.43-1.367-1.696-1.734-2.082c-1.04-1.09-2.307-2.152-3.259-2.943
		c-2.229-1.852-4.713-3.812-6.906-5.639c-5.189-4.321-9.854-8.429-14.067-11.032c-1.646-1.016-3.559,0.644-2.212,2.707
		C51.597,205.516,51.873,205.817,51.932,205.864z"/>
</g>
<g id="Layer_15">
	<g>
		<path d="M238.052,227.597c0,1.077-1.782,3.729-5.346,7.957h-0.746c-0.553-0.221-0.898-1.036-1.036-2.445
			c-0.304-2.845-1.285-5.173-2.942-6.982s-3.646-2.715-5.967-2.715c-2.183,0-4.061,0.794-5.636,2.381
			c-1.575,1.587-2.362,3.483-2.362,5.691c0,1.601,0.5,3.318,1.5,5.153c1,1.835,3.589,4.745,7.77,8.729
			c4.18,3.984,6.863,7.157,8.052,9.52c1.188,2.362,1.782,4.606,1.782,6.733c0,4.918-2.134,9.249-6.402,12.992
			c-4.269,3.744-9.262,5.615-14.981,5.615c-4.724,0-8.62-1.099-11.686-3.295c-3.067-2.196-4.6-3.984-4.6-5.366
			c0-0.773,0.842-2.569,2.528-5.388c1.685-2.817,2.652-4.227,2.901-4.227c0.884,0,1.513,0.256,1.886,0.767
			c0.373,0.512,0.628,1.458,0.767,2.839c0.414,4.31,1.457,7.279,3.128,8.909c1.671,1.631,3.847,2.445,6.527,2.445
			c2.928,0,5.483-1.014,7.667-3.043c2.182-2.029,3.273-4.382,3.273-7.06c0-1.38-0.424-2.85-1.271-4.409
			c-0.848-1.56-3.237-4.214-7.169-7.962c-3.933-3.749-6.506-6.921-7.722-9.519c-1.216-2.597-1.823-5.124-1.823-7.584
			c0-4.281,1.616-8.219,4.848-11.811c3.232-3.591,7.528-5.387,12.888-5.387c4.061,0,7.438,0.933,10.132,2.797
			C236.705,224.8,238.052,226.354,238.052,227.597z"/>
		<path d="M283.222,270.033c-3.757,4.144-6.583,6.879-8.475,8.205c-1.893,1.326-3.765,1.989-5.615,1.989
			c-1.05,0-2.977-0.456-5.781-1.367c-2.805-0.912-4.925-1.368-6.361-1.368c-1.796,0-3.102,0.456-3.916,1.368
			c-0.815,0.911-1.347,1.367-1.596,1.367c-1.382,0-2.21-0.021-2.486-0.063c-0.276-0.041-0.415-0.145-0.415-0.311
			c0-0.608,2.362-3.798,7.086-9.573l14.297-17.404c-1.603,0.331-3.329,0.497-5.18,0.497c-2.487,0-5.056-0.415-7.708-1.243
			c-4.973,7.128-9.808,13.095-14.504,17.902h-0.953v-3.729c3.508-3.592,6.886-7.618,10.132-12.08
			c3.246-4.462,5.131-7.273,5.657-8.434c0.524-1.16,0.953-1.74,1.285-1.74c0.193,0,1.464,0.187,3.813,0.56
			c2.348,0.373,4.24,0.56,5.677,0.56c2.597,0,4.979-0.187,7.148-0.56c2.168-0.373,3.433-0.56,3.792-0.56
			c0.524,0,0.787,0.137,0.787,0.408c-0.022,1.009-2.255,4.183-6.701,9.52l-13.38,16.222c1.106-0.11,2.019-0.166,2.738-0.166
			c0.525,0,2.315,0.311,5.372,0.933c3.057,0.621,4.888,0.932,5.497,0.932c1.714,0,3.187-0.462,4.418-1.388
			c1.23-0.926,3.021-2.673,5.372-5.242V270.033z"/>
		<path d="M303.004,251.097c1.988-2.404,3.865-4.18,5.632-5.327c1.767-1.147,3.727-1.721,5.88-1.721
			c2.788,0,5.059,1.071,6.812,3.212c1.753,2.141,2.63,4.952,2.63,8.433c0,6.106-2.107,11.707-6.321,16.805
			c-4.214,5.097-8.794,7.646-13.74,7.646c-1.381,0-2.473-0.152-3.274-0.456c-0.801-0.305-1.851-1.009-3.15-2.114
			c-1.988,8.758-3.271,15.776-3.851,21.054l-10.524,1.864c1.961-12.93,4.461-26.025,7.501-39.286
			c-3.647,4.78-6.106,7.723-7.376,8.827h-0.953v-3.729c5.249-5.663,9.573-12.543,12.971-20.638l9.368-1.7L303.004,251.097z
			 M298.211,273.262c1.438,2.378,3.028,3.566,4.77,3.566c2.792,0,5.26-2.12,7.403-6.361c2.143-4.24,3.214-8.377,3.214-12.411
			c0-2.127-0.435-3.847-1.305-5.159c-0.87-1.313-1.996-1.969-3.376-1.969c-1.078,0-2.209,0.483-3.397,1.451
			s-2.085,2.093-2.692,3.378c-0.607,1.284-1.297,3.529-2.071,6.734L298.211,273.262z"/>
		<path d="M373.521,270.033c-4.42,4.199-7.583,6.935-9.49,8.205c-1.907,1.271-3.73,1.906-5.47,1.906
			c-4.366,0-6.423-3.854-6.175-11.562c-2.763,3.951-5.312,6.865-7.646,8.743c-2.335,1.879-4.745,2.818-7.231,2.818
			c-2.431,0-4.496-1.14-6.195-3.419c-1.699-2.279-2.548-5.076-2.548-8.392c0-4.145,1.14-8.095,3.419-11.853
			c2.279-3.757,5.201-6.796,8.765-9.116c3.563-2.321,6.713-3.481,9.448-3.481c3.453,0,5.871,1.589,7.252,4.766l8.47-4.683h2.325
			l-3.655,12.143c-1.883,6.106-2.824,10.292-2.824,12.558c0,2.375,0.842,3.563,2.526,3.563c1.077,0,2.265-0.573,3.562-1.72
			c1.298-1.146,3.121-2.894,5.468-5.242V270.033z M343.187,272.312c2.762,0,5.366-2.355,7.812-7.065
			c2.445-4.71,3.667-9.056,3.667-13.033c0-1.547-0.346-2.756-1.036-3.626c-0.691-0.871-1.616-1.306-2.776-1.306
			c-2.763,0-5.381,2.349-7.853,7.045c-2.473,4.697-3.709,9.021-3.709,12.971c0,1.492,0.366,2.701,1.098,3.626
			C341.121,271.849,342.053,272.312,343.187,272.312z"/>
		<path d="M397.349,270.033c-3.481,3.454-6.492,6.002-9.034,7.646s-4.959,2.466-7.252,2.466c-2.376,0-4.303-1.001-5.781-3.005
			c-1.478-2.002-2.217-4.634-2.217-7.894c0-2.873,0.708-6.667,2.126-11.381l1.758-6.273l-3.18,0.166l1.328-6.506l3.94-0.166
			l3.891-12.93l11.07-2.272l-4.283,14.415l5.853-0.332l-1.368,6.382l-6.429,0.497l-2.76,9.286c-0.959,3.227-1.439,5.794-1.439,7.701
			c0,1.3,0.325,2.357,0.976,3.173c0.65,0.816,1.486,1.224,2.511,1.224c1.411,0,2.808-0.449,4.191-1.347
			c1.384-0.897,3.418-2.77,6.102-5.615V270.033z"/>
		<path d="M441.566,270.033c-3.646,3.454-6.699,6.002-9.158,7.646s-4.669,2.466-6.631,2.466c-2.182,0-3.86-0.87-5.035-2.61
			c-1.174-1.741-1.761-4.103-1.761-7.087c-3.039,3.343-5.761,5.809-8.163,7.397c-2.404,1.588-4.752,2.383-7.045,2.383
			c-2.101,0-3.785-0.87-5.057-2.611c-1.271-1.74-1.906-4.103-1.906-7.086c0-5.746,1.934-13.841,5.803-24.284l11.068-2.205
			c-4.552,13.243-6.832,21.742-6.842,25.497c0,2.651,0.994,3.976,2.983,3.976c1.437,0,3.218-1.166,5.346-3.501
			s3.453-4.372,3.979-6.113l5.429-17.653l11.28-2.281c-2.604,8.315-4.391,14.158-5.36,17.528c-0.97,3.371-1.454,5.732-1.454,7.088
			c0,2.598,0.885,3.896,2.654,3.896c1.438,0,3.566-1.312,6.387-3.937l3.483-3.273V270.033z"/>
		<path d="M468.959,270.033c-3.813,3.48-7.127,6.036-9.945,7.666s-5.525,2.445-8.123,2.445c-2.956,0-5.146-0.847-6.568-2.541
			c-1.423-1.693-2.299-3.621-2.631-5.784c-0.332-2.162-0.498-4.73-0.498-7.705l-7.79,3.087v-3.384l8.163-3.232
			c1.879-12.902,6.037-25.058,12.475-36.468l10.525-3.896c0.332-0.11,0.58-0.166,0.746-0.166c1.823,0,2.734,2.279,2.734,6.838
			c0,4.503-0.794,8.848-2.383,13.033c-1.588,4.186-4.537,9.068-8.848,14.648l8.082-3.149v3.297l-12.848,5.09
			c-0.275,2.807-0.414,4.898-0.414,6.273c0,2.229,0.449,4.038,1.348,5.428c0.896,1.389,2.064,2.083,3.501,2.083
			c1.547,0,3.198-0.573,4.952-1.72c1.754-1.146,4.262-3.35,7.521-6.609V270.033z M453.088,253.83
			c3.535-3.901,6.388-8.266,8.557-13.094s3.254-8.998,3.254-12.512c0-1.023-0.152-1.847-0.456-2.47
			c-0.305-0.622-0.69-0.934-1.161-0.934c-0.746,0-2.017,1.972-3.813,5.914S455.546,242.375,453.088,253.83z"/>
		<path d="M513.217,270.033c-4.42,4.199-7.582,6.935-9.488,8.205s-3.73,1.906-5.471,1.906c-4.365,0-6.424-3.854-6.175-11.562
			c-2.763,3.951-5.312,6.865-7.646,8.743c-2.336,1.879-4.745,2.818-7.232,2.818c-2.431,0-4.496-1.14-6.195-3.419
			c-1.698-2.279-2.548-5.076-2.548-8.392c0-4.145,1.14-8.095,3.419-11.853c2.279-3.757,5.201-6.796,8.765-9.116
			c3.563-2.321,6.714-3.481,9.448-3.481c3.453,0,5.871,1.589,7.252,4.766l8.471-4.683h2.324l-3.654,12.143
			c-1.883,6.106-2.824,10.292-2.824,12.558c0,2.375,0.842,3.563,2.525,3.563c1.078,0,2.266-0.573,3.563-1.72
			s3.121-2.894,5.467-5.242V270.033z M482.883,272.312c2.763,0,5.367-2.355,7.813-7.065c2.444-4.71,3.667-9.056,3.667-13.033
			c0-1.547-0.346-2.756-1.036-3.626c-0.691-0.871-1.616-1.306-2.776-1.306c-2.763,0-5.381,2.349-7.853,7.045
			c-2.474,4.697-3.709,9.021-3.709,12.971c0,1.492,0.365,2.701,1.098,3.626C480.817,271.849,481.75,272.312,482.883,272.312z"/>
		<path d="M567.09,270.033c-1.879,2.184-5.473,4.644-10.779,7.379c-1.105,7.348-3.551,13.031-7.334,17.051
			c-3.785,4.02-8.037,6.029-12.762,6.029c-2.264,0-4.039-0.525-5.324-1.575c-1.285-1.051-1.926-2.502-1.926-4.354
			c0-5.14,4.99-10.129,14.973-14.964c1.045-3.728,2.063-7.081,3.055-10.063c-1.742,2.514-4.27,4.738-7.584,6.672
			c-3.316,1.934-6.396,2.9-9.242,2.9c-4.641,0-8.502-2.01-11.582-6.029s-4.621-9.11-4.621-15.271c0-6.491,1.74-12.646,5.223-18.461
			c3.48-5.815,8.053-10.471,13.717-13.966c5.662-3.495,11.146-5.242,16.451-5.242c4.752,0,8.613,1.354,11.582,4.061
			c2.971,2.708,4.455,6.217,4.455,10.526c0,4.642-1.672,8.73-5.014,12.267c-3.344,3.536-7.184,5.305-11.521,5.305
			c-2.541,0-4.648-0.622-6.318-1.865c-1.672-1.243-2.508-2.776-2.508-4.6c0-1.105,0.324-2.086,0.975-2.942
			c0.648-0.856,1.4-1.285,2.258-1.285c0.828,0,1.244,0.484,1.244,1.45c0,0.857,0.316,1.521,0.953,1.989
			c0.635,0.471,1.367,0.705,2.195,0.705c2.211,0,4.33-1.513,6.361-4.538s3.047-6.264,3.047-9.718c0-2.431-0.789-4.413-2.363-5.946
			c-1.574-1.534-3.605-2.301-6.092-2.301c-3.729,0-7.342,1.658-10.836,4.974c-3.496,3.314-6.342,7.673-8.537,13.074
			c-2.197,5.401-3.295,10.533-3.295,15.396c0,4.476,0.967,8.032,2.898,10.671c1.934,2.639,4.502,3.957,7.705,3.957
			c5.412,0,10.588-3.826,15.531-11.479l7.785-1.119c0.967-0.138,1.451,0.096,1.451,0.7c0,0.275-0.375,1.463-1.121,3.563
			c-0.746,2.099-1.77,5.607-3.07,10.524c4.293-2.483,7.617-5.23,9.971-8.239V270.033z M542.972,283.791
			c-7.184,3.592-10.775,7.128-10.775,10.609c0,1.851,0.883,2.776,2.652,2.776C538.33,297.176,541.037,292.714,542.972,283.791z"/>
		<path d="M611.306,270.033c-4.42,4.199-7.582,6.935-9.488,8.205s-3.73,1.906-5.471,1.906c-4.365,0-6.424-3.854-6.176-11.562
			c-2.762,3.951-5.311,6.865-7.645,8.743c-2.336,1.879-4.746,2.818-7.232,2.818c-2.432,0-4.496-1.14-6.195-3.419
			s-2.549-5.076-2.549-8.392c0-4.145,1.141-8.095,3.42-11.853c2.279-3.757,5.201-6.796,8.764-9.116
			c3.564-2.321,6.715-3.481,9.449-3.481c3.453,0,5.871,1.589,7.252,4.766l8.471-4.683h2.324l-3.654,12.143
			c-1.883,6.106-2.824,10.292-2.824,12.558c0,2.375,0.842,3.563,2.525,3.563c1.078,0,2.266-0.573,3.563-1.72
			s3.121-2.894,5.467-5.242V270.033z M580.972,272.312c2.762,0,5.367-2.355,7.813-7.065s3.666-9.056,3.666-13.033
			c0-1.547-0.346-2.756-1.035-3.626c-0.691-0.871-1.615-1.306-2.777-1.306c-2.762,0-5.381,2.349-7.852,7.045
			c-2.473,4.697-3.709,9.021-3.709,12.971c0,1.492,0.365,2.701,1.098,3.626C578.908,271.849,579.84,272.312,580.972,272.312z"/>
		<path d="M624.031,245.749c1.906-0.497,3.826-0.905,5.76-1.223s3.094-0.477,3.48-0.477c0.275,0,0.414,0.11,0.414,0.331
			c0,0.415-0.109,0.842-0.33,1.284c-0.443,1.27-0.664,2.485-0.664,3.645c0.004,1.437,0.834,3.398,2.49,5.886
			c1.654,2.487,2.482,4.796,2.482,6.923c0,4.227-2.023,8.302-6.07,12.225c-4.049,3.924-8.24,5.885-12.578,5.885
			c-1.879,0-3.592-0.497-5.139-1.492c-1.547-0.994-2.32-2.058-2.32-3.19c0-0.663,0.768-1.92,2.301-3.771
			c1.533-1.851,2.631-2.776,3.293-2.776c0.885,0,1.672,1.133,2.363,3.398c0.689,2.266,1.879,3.397,3.564,3.397
			c1.684,0,3.266-0.78,4.744-2.341c1.479-1.562,2.217-3.24,2.217-5.036c0.002-1.741-0.938-4.062-2.816-6.962
			s-3.123-5.331-3.73-7.293c-3.205,5.167-7.268,10.457-12.184,15.872h-0.953v-3.729
			C617.123,259.092,621.681,252.241,624.031,245.749z"/>
		<path d="M669.572,270.033c-3.48,3.454-6.492,6.002-9.033,7.646c-2.543,1.644-4.959,2.466-7.252,2.466
			c-2.377,0-4.303-1.001-5.781-3.005c-1.479-2.002-2.217-4.634-2.217-7.894c0-2.873,0.709-6.667,2.127-11.381l1.758-6.273
			l-3.18,0.166l1.326-6.506l3.941-0.166l3.891-12.93l11.07-2.272l-4.283,14.415l5.852-0.332l-1.369,6.382l-6.428,0.497l-2.76,9.286
			c-0.961,3.227-1.439,5.794-1.439,7.701c0,1.3,0.324,2.357,0.975,3.173c0.65,0.816,1.486,1.224,2.512,1.224
			c1.41,0,2.809-0.449,4.191-1.347s3.416-2.77,6.1-5.615V270.033z"/>
		<path d="M700.529,270.033c-6.936,6.796-12.281,10.194-16.037,10.194c-1.686,0-3.109-0.712-4.27-2.135
			c-1.16-1.422-1.74-3.184-1.74-5.283c0-3.896,2.086-9.117,6.258-15.665c-2.045,1.051-4.283,1.782-6.713,2.197
			c-1.797,3.314-4.615,6.879-8.455,10.691h-0.953v-3.729c2.156-2.238,4.104-4.642,5.844-7.211c-2.377-1.05-3.564-2.611-3.564-4.683
			c0-2.127,0.727-4.399,2.176-6.817c1.451-2.417,3.447-3.626,5.988-3.626c2.154,0,3.232,1.105,3.232,3.315
			c0,1.74-0.621,4.227-1.865,7.459c4.586-0.497,8.592-4.005,12.018-10.525l3.771-0.166l-3.854,10.608
			c-1.604,4.476-2.639,7.521-3.107,9.138c-0.471,1.616-0.705,3.046-0.705,4.289c0,1.161,0.27,2.087,0.809,2.777
			c0.537,0.69,1.264,1.035,2.176,1.035c0.994,0,1.947-0.338,2.859-1.015c0.91-0.677,2.955-2.549,6.133-5.615V270.033z"/>
		<path d="M737.742,270.033c-1.408,1.243-2.775,2.12-4.102,2.631c-1.326,0.512-2.377,0.768-3.15,0.768
			c-1.988,0-3.965-0.773-5.926-2.321c-3.979,6.023-8.537,9.034-13.676,9.034c-3.205,0-5.801-1.202-7.789-3.605
			c-1.99-2.403-2.984-5.595-2.984-9.572c0-6.3,2.238-11.707,6.713-16.225c4.477-4.517,9.822-6.775,16.037-6.775
			c2.348,0,4.068,0.256,5.16,0.767c1.092,0.512,1.762,1.112,2.01,1.803s0.373,1.562,0.373,2.61c0,5.167-1.408,11.508-4.227,19.021
			c1.408,1.299,2.887,1.948,4.434,1.948c1.852,0,4.227-1.616,7.127-4.849V270.033z M724.068,246.868
			c-0.416-0.166-1.01-0.249-1.783-0.249c-3.592,0-6.402,1.879-8.432,5.636c-2.031,3.758-3.047,8.15-3.047,13.178
			c0,2.791,0.441,4.96,1.326,6.507c0.885,1.548,2.113,2.32,3.688,2.32c1.963,0,4.09-1.809,6.383-5.429
			c-2.598-3.26-3.896-6.769-3.896-10.525C718.306,253.885,720.226,250.073,724.068,246.868z"/>
	</g>
	<polygon points="140.834,246.542 168.793,221.958 167.043,220.875 164.293,222.25 152.625,231.458 147.668,235.833 142.418,240 
		139.625,243.417 139.418,245.042 140.125,246.333 	"/>
	<polygon points="128.334,237.042 156.293,212.458 154.543,211.375 151.793,212.75 140.125,221.958 135.168,226.333 129.918,230.5 
		127.125,233.917 126.918,235.542 127.625,236.833 	"/>
	<polygon points="116.209,227.292 144.168,202.708 142.418,201.625 139.668,203 128,212.208 123.043,216.583 117.793,220.75 
		115,224.167 114.793,225.792 115.5,227.083 	"/>
	<polygon points="54.384,246.708 26.425,222.125 28.175,221.042 30.925,222.417 42.592,231.625 47.551,236 52.801,240.167 
		55.592,243.583 55.801,245.208 55.092,246.5 	"/>
	<polygon points="66.884,237.208 38.925,212.625 40.676,211.542 43.426,212.917 55.092,222.125 60.051,226.5 65.301,230.667 
		68.092,234.083 68.301,235.708 67.592,237 	"/>
	<polygon points="79.009,227.458 51.051,202.875 52.801,201.792 55.551,203.167 67.217,212.375 72.176,216.75 77.426,220.917 
		80.217,224.333 80.426,225.958 79.717,227.25 	"/>
</g>
</svg>
