<?xml version="1.0" encoding="utf-8"?>
<!-- Generator: Adobe Illustrator 13.0.0, SVG Export Plug-In . SVG Version: 6.00 Build 14948)  -->
<!DOCTYPE svg PUBLIC "-//W3C//DTD SVG 1.1//EN" "http://www.w3.org/Graphics/SVG/1.1/DTD/svg11.dtd">
<svg version="1.1" id="Layer_1" xmlns="http://www.w3.org/2000/svg" xmlns:xlink="http://www.w3.org/1999/xlink" x="0px" y="0px"
	 width="731.478px" height="131.338px" viewBox="6.263 188.226 731.478 131.338"
	 enable-background="new 6.263 188.226 731.478 131.338" xml:space="preserve">
<g id="dark2_copy_3">
	<path stroke="#000000" d="M8.143,218.321l2.75,5.454l6.586,6.619l14.003,11.827l9.976,7.814l5.274,4.229l1.918,2.114l2.271,1.747
		l2.877,1.164l7.098,0.337l10.007-0.643l3.55,0.366l5.724,1.073l3.708,1.072l2.43,1.532l-0.768,1.777l-1.887,1.44l-2.143-0.551
		l-4.061-1.135l-3.356-0.796l-5.243-0.49l-6.938,0.429l-3.069,0.643l-1.939,0.327l-2.644,0.532l-2.983-0.98l-8.823-6.455
		l-9.337-7.682l-6.267-5.353l-7.844-6.588l-5.659-5.057l-5.18-5.577l-1.246-3.892l-0.16-3.064l0.799-2.268L8.143,218.321z
		 M38.197,304.917l1.278,4.412l4.093,5.209l3.965,2.939l5.755,1.574c0,0,2.511-0.471,3.239-0.98
		c0.77,0.164,21.507-21.43,21.507-21.43l16.369-15.81l4.924-3.677l26.602,25.433l15.794,15.506l1.728,0.553l3.068,0.305l3.069-1.225
		l3.261-1.84l3.518-3.125l2.621-3.492l0.831-4.289l-0.959-4.414l-2.109,6.496l-4.858,4.965l-3.581,1.9l-2.687,0.795l-2.237-0.611
		l-5.371-3.984l-32.403-31.529l-2.488-2.155l-1.631-1.708l2.313-1.867l5.116-3.371l4.188-2.605l3.229-1.225l3.421-1.134l4.731-0.918
		l5.627-0.337l4.571,0.123l9.24,1.471l1.438-0.368l2.334-1.041l2.143-1.532l2.142-1.471l2.366-1.809l3.005-2.298l2.526-2.083
		l4.604-3.729l5.456-4.576l12.085-10.316l3.751-3.35l2.494-2.268l2.431-3.739l0.574-3.983c0,0-2.046-6.74-1.727-4.167
		c0.319,2.574-2.834,6.659-2.834,6.659l-1.875,1.88l-8.611,7.437l-7.503,6.046l-4.007,3.718l-9.25,7.354l-4.988,4.127l-2.088,1.838
		l-2.515,1.715l-4.689,0.654l-8.354-0.327l-7.419-0.246l-5.179,1.062l-3.049,0.449l-10.229,5.394l-8.44,7.149l-13.514,12.707
		l-3.772,3.381L67.967,302.04l-5.755,5.576l-4.925,4.934l-2.558,1.438l-2.525,0.644l-3.678-1.256l-3.261-2.146l-3.037-3.433
		l-3.325-5.334L38.197,304.917z"/>
</g>
<g id="paths_copy">
	<path d="M98.815,251.231c1.861-2.698,3.343-6.16,4.349-9.806c0.998-3.613,1.692-7.963,1.535-12.257
		c-0.058-1.522-0.674-3.322-0.513-4.902c0.354-3.48,5.091-8.596,7.417-11.031c6.32-6.616,12.055-11.063,18.927-17.65
		c2.856-2.737,6.721-7.197,10.999-7.354c4.843-0.18,8.677,4.221,11.511,6.618c7.563,6.4,13.229,9.565,22.509,13.729
		c3.854,1.729,9.811,3.071,12.532,5.393c2.266,1.933,4.47,6.256,3.581,10.541c-0.853,4.106-6.936,9.362-9.976,12.013
		c-10.273,8.954-18.938,16.461-30.438,24.759c-2.072,1.496-4.752,3.943-6.905,4.167c-2.245,0.232-5.379-1.12-8.441-1.472
		c-7.594-0.868-14.217-0.043-19.693,2.206c2.792,2.857,6.549,5.355,10.23,8.091c8.876,6.59,17.694,12.686,27.368,19.364
		c1.905,1.315,4.648,2.683,5.371,3.921c0.813,1.396,1.355,4.816,1.278,6.865c-0.194,5.189-3.399,8.855-7.417,11.768
		c-2.44,1.768-6.172,3.643-9.464,3.186c-4.145-0.573-8.891-7.395-11.511-10.049c-10.81-10.961-21.472-21.542-32.738-31.625
		c-2.344,1.193-4.024,3.213-5.884,4.902c-11.107,10.106-21.361,21.049-32.481,32.113c-1.729,1.719-3.999,4.289-5.884,4.658
		c-6.773,1.33-14.329-6.305-16.114-9.808c-1.643-3.221-1.772-8.729,0.257-12.012c0.848-1.371,3.101-2.793,5.115-4.167
		c12.786-8.722,26.229-17.813,37.854-27.21c-5.446-2.128-12.02-3.135-19.951-2.205c-2.964,0.347-5.902,1.621-8.185,1.471
		c-2.32-0.154-5.051-2.644-7.162-4.167c-11.188-8.083-20.456-15.887-30.693-25.003c-3.478-3.098-8.93-7.483-9.719-12.257
		c-1.325-8.016,4.968-11.463,10.999-13.482c11.591-3.884,21.162-10.016,29.414-17.16c3.095-2.679,7.056-6.78,12.788-4.412
		c3.204,1.323,6.727,5.466,9.464,8.089c5.986,5.738,11.715,10.432,17.647,16.915c2.854,3.119,6.74,6.673,7.162,10.052
		c0.19,1.534-0.431,3.197-0.513,4.657C92.948,237.557,96.103,244.784,98.815,251.231z M92.165,229.413
		c0.039-1.645,0.751-3.525,0.513-5.146c-0.216-1.466-1.739-3.66-3.069-5.394c-6.328-8.245-14.685-14.621-21.997-21.572
		c-3.118-2.965-6.313-6.71-9.975-7.599c-1.539-0.374-2.33-0.214-3.069,0c-5.24,1.511-9.629,7.271-14.322,10.541
		c-3.886,2.705-10.585,6.531-15.348,8.825c-3.689,1.776-9.753,3.115-13.044,5.146c-7.41,4.574,2.071,12.332,5.883,15.689
		c4.099,3.609,7.988,6.915,11.511,9.805c5.726,4.697,12.131,9.376,17.648,14.218c2.19,1.922,3.739,3.926,6.139,4.658
		c4.5,1.373,10.991-0.27,16.625-0.246c3.729,0.018,7.046,0.762,10.229,1.228c1.758-7.876,7.041-12.374,15.091-14.219
		C93.397,240.451,92.032,235.085,92.165,229.413z M125.927,258.339c6.142-0.365,13.863,1.862,19.438,0.246
		c1.515-0.438,3.487-2.331,5.37-3.921c8.745-7.391,17.218-14.177,25.322-21.083c3.451-2.939,7.264-5.647,9.976-8.825
		c1.404-1.646,3.484-4.646,3.068-7.108c-0.729-4.312-7.885-5.225-11.51-6.618c-4.601-1.77-8.696-4.233-12.021-6.128
		c-4.106-2.344-7.746-4.428-10.997-7.109c-3.336-2.751-6.895-6.779-10.486-7.845c-5.717-1.694-9.616,3.885-13.301,7.354
		c-6.228,5.866-12.107,10.563-17.903,16.669c-3.164,3.334-6.604,6.868-7.162,10.296c-0.358,2.201,0.458,5.688,0.256,8.579
		c-0.326,4.658-1.535,8.822-2.813,12.502c8.03,1.863,13.424,6.255,15.092,14.219C120.83,259.139,123.103,258.508,125.927,258.339z
		 M17.223,235.787c6.21,5.406,11.724,10.079,17.647,14.953c4.163,3.425,7.625,6.259,12.276,9.561
		c2.425,1.722,4.997,4.018,6.906,4.167c1.383,0.109,3.431-0.674,5.371-0.979c8.478-1.338,17.424-0.731,23.787,1.96
		c1.011-0.747,2.227-1.296,2.813-2.452c-4.472-2.002-9.068-3.528-15.347-3.677c-6.269-0.148-13.36,1.746-18.16,0.246
		c-2.278-0.713-3.628-2.696-5.883-4.658c-1.768-1.539-3.779-3.104-5.371-4.413c-7.806-6.42-14.404-11.544-21.741-17.896
		c-4.695-4.064-9.519-7.391-11.51-12.99c-0.015-0.15-0.038-0.291-0.256-0.246C6.105,227.207,12.323,231.522,17.223,235.787z
		 M186.546,225.737c-2.789,3.1-6.506,5.7-9.978,8.579c-8.284,6.871-17.396,14.091-25.576,21.326
		c-2.002,1.771-3.908,3.472-5.627,3.923c-4.759,1.25-11.34-0.318-17.647-0.246c-9.753,0.113-17.471,4.315-23.531,9.314
		c-6.2,5.114-12.042,10.832-17.137,15.688c-8.032,7.655-16.631,15.864-24.812,24.021c-3.013,3.007-6.238,6.644-9.975,6.619
		c-3.684-0.021-7.895-3.623-10.23-6.373c-1.358-1.598-2.202-3.424-3.069-5.393c0.1,2.646,0.493,4.775,1.536,6.617
		c1.851,3.271,8.58,9.445,14.065,8.582c2.86-0.453,7.065-5.721,8.952-7.602c1.712-1.707,3.617-3.592,5.116-5.146
		c9.571-9.941,17.294-17.667,27.368-26.72c5.024-4.519,10.229-8.98,15.346-11.767c8.701-4.737,20.865-5.864,32.995-2.697
		c8.557-4.868,16.66-11.659,25.064-18.63c3.777-3.133,7.584-6.372,11.767-10.051c4.344-3.822,11.03-9.145,8.952-16.178
		C189.395,221.674,188.23,223.863,186.546,225.737z M95.49,246.328c-8.011,1.557-13.192,5.822-14.579,13.728
		c2.354,0.521,3.979,1.744,6.14,2.452c3.749-3.352,8.158-6.073,10.999-10.296C97.101,250.341,96.037,248.583,95.49,246.328z
		 M102.651,247.064c-1.653,5.15-4.761,7.893-8.695,11.274c-7.38,6.347-14.979,12.326-22.765,17.896
		c-7.352,5.261-15.672,11.555-23.53,16.914c-2.444,1.667-7.193,3.892-7.674,5.884c-0.425,1.764,0.409,4.494,1.023,5.883
		c1.725,3.896,7.705,9.262,11.766,9.07c2.813-0.135,5.917-3.385,8.187-5.641c12.017-11.957,23.343-23.157,35.552-34.072
		c6.563-5.87,11.914-11.672,20.718-14.22c-1.431-7.698-6.505-11.905-14.066-13.728C102.842,246.429,102.64,246.644,102.651,247.064z
		 M136.414,283.099c-7.231-5.231-14.537-10.438-21.484-15.934c-0.256,0-0.306-0.199-0.512-0.246
		c-4.486,2.32-8.771,4.832-12.021,8.335c10.069,8.859,21.297,20.167,31.715,30.153c3.039,2.912,7.635,9.061,12.021,8.824
		c0.96-0.053,3.252-1.324,4.604-2.205c4.526-2.955,7.514-6.926,7.417-13.482C151.249,292.993,143.645,288.33,136.414,283.099z
		 M157.387,307.122c-1.847,2.965-7.948,8.601-12.789,7.846c-4.128-0.645-8.561-6.243-11.51-9.069
		c-5.798-5.558-10.407-10.222-15.604-15.198c-5.298-5.078-10.624-10.504-15.856-14.953c-0.056-0.297-0.284-0.151-0.513,0
		c-0.252,0.331-0.683,0.489-1.022,0.734c-0.128,1.354,1.463,1.723,2.302,2.452c0.899,0.782,1.684,1.858,2.558,2.696
		c10.95,10.496,21.823,20.827,32.482,31.868c1.76,1.824,3.855,4.523,5.883,4.904c4.56,0.852,9.642-3.002,12.277-5.887
		c2.198-2.4,3.998-5.555,3.325-9.559C158.518,304.512,158.168,305.87,157.387,307.122z"/>
	<path d="M165.316,220.589c1.89-1.298,4.521-0.117,4.604,2.207c0.096,2.632-4.426,5.593-6.14,7.109
		c-4.441,3.929-9.723,8.076-14.322,12.011c-2.19,1.875-5.088,5.539-7.674,5.393c-0.777-0.043-2.112-0.742-2.303-0.979
		c-2.549-3.21,2.257-6.546,4.093-8.089C150.892,232.088,157.844,226.155,165.316,220.589z M168.296,224.521
		c1.346-2.064-0.566-3.724-2.212-2.707c-4.213,2.603-8.878,6.71-14.068,11.031c-2.192,1.827-4.677,3.787-6.906,5.639
		c-0.951,0.792-2.219,1.854-3.259,2.943c-0.368,0.387-1.478,1.652-1.733,2.082c-0.261,0.435-0.424,0.975-0.163,1.578
		c0.224,0.521,1.881,3.309,5.583-0.486c0.583-0.516,15.21-13.333,17.454-15.313c2.698-2.384,4.894-4.319,4.919-4.34
		C167.969,224.9,168.245,224.599,168.296,224.521z"/>
	<path d="M152.816,211.089c1.89-1.298,4.521-0.117,4.604,2.207c0.096,2.632-4.426,5.593-6.14,7.109
		c-4.441,3.929-9.723,8.076-14.322,12.011c-2.19,1.875-5.088,5.539-7.674,5.393c-0.777-0.043-2.112-0.742-2.303-0.979
		c-2.549-3.21,2.257-6.546,4.093-8.089C138.392,222.588,145.344,216.655,152.816,211.089z M155.796,215.021
		c1.346-2.064-0.566-3.724-2.212-2.707c-4.213,2.603-8.878,6.71-14.068,11.031c-2.192,1.827-4.677,3.787-6.906,5.639
		c-0.951,0.792-2.219,1.854-3.259,2.943c-0.368,0.387-1.478,1.652-1.733,2.082c-0.261,0.435-0.424,0.975-0.163,1.578
		c0.224,0.521,1.881,3.309,5.583-0.486c0.583-0.516,15.21-13.333,17.454-15.313c2.698-2.384,4.894-4.319,4.919-4.34
		C155.469,215.4,155.745,215.099,155.796,215.021z"/>
	<path d="M140.691,201.339c1.89-1.298,4.521-0.117,4.604,2.207c0.096,2.632-4.426,5.593-6.14,7.109
		c-4.441,3.929-9.723,8.076-14.322,12.011c-2.19,1.875-5.088,5.539-7.674,5.393c-0.777-0.043-2.112-0.742-2.303-0.979
		c-2.549-3.21,2.257-6.546,4.093-8.089C126.267,212.838,133.219,206.905,140.691,201.339z M143.671,205.271
		c1.346-2.064-0.566-3.724-2.212-2.707c-4.213,2.603-8.878,6.71-14.068,11.031c-2.193,1.827-4.677,3.787-6.906,5.639
		c-0.951,0.792-2.219,1.854-3.259,2.943c-0.368,0.387-1.478,1.652-1.733,2.082c-0.261,0.435-0.424,0.975-0.163,1.578
		c0.224,0.521,1.88,3.309,5.583-0.486c0.583-0.516,15.21-13.333,17.454-15.313c2.698-2.384,4.894-4.319,4.919-4.34
		C143.344,205.65,143.62,205.349,143.671,205.271z"/>
	<path d="M51.641,238.406c1.835,1.543,6.643,4.879,4.092,8.089c-0.188,0.238-1.523,0.937-2.302,0.979
		c-2.586,0.146-5.483-3.519-7.673-5.393c-4.603-3.935-9.882-8.082-14.324-12.011c-1.713-1.517-6.233-4.478-6.139-7.109
		c0.084-2.323,2.716-3.504,4.604-2.207C37.373,226.322,44.324,232.255,51.641,238.406z M27.307,225.114
		c0.025,0.021,2.22,1.957,4.919,4.34c2.243,1.98,16.871,14.797,17.454,15.313c3.703,3.794,5.359,1.007,5.583,0.486
		c0.26-0.604,0.097-1.144-0.163-1.578c-0.258-0.43-1.367-1.696-1.733-2.082c-1.04-1.09-2.308-2.152-3.26-2.943
		c-2.229-1.852-4.713-3.812-6.905-5.639c-5.189-4.321-9.854-8.429-14.068-11.032c-1.646-1.016-3.558,0.644-2.212,2.707
		C26.972,224.766,27.248,225.067,27.307,225.114z"/>
	<path d="M64.141,228.906c1.835,1.543,6.643,4.879,4.092,8.089c-0.188,0.238-1.523,0.937-2.302,0.979
		c-2.586,0.146-5.483-3.519-7.673-5.393c-4.603-3.935-9.881-8.082-14.324-12.011c-1.713-1.517-6.233-4.478-6.139-7.109
		c0.084-2.323,2.716-3.504,4.604-2.207C49.873,216.822,56.824,222.755,64.141,228.906z M39.807,215.614
		c0.025,0.021,2.22,1.957,4.919,4.34c2.243,1.98,16.871,14.797,17.454,15.313c3.703,3.794,5.359,1.007,5.583,0.486
		c0.26-0.604,0.097-1.144-0.163-1.578c-0.258-0.43-1.367-1.696-1.733-2.082c-1.04-1.09-2.308-2.152-3.26-2.943
		c-2.229-1.852-4.713-3.812-6.905-5.639c-5.189-4.321-9.854-8.429-14.067-11.032c-1.646-1.016-3.559,0.644-2.213,2.707
		C39.472,215.266,39.748,215.567,39.807,215.614z"/>
	<path d="M76.266,219.156c1.835,1.543,6.643,4.879,4.092,8.089c-0.188,0.238-1.523,0.937-2.302,0.979
		c-2.586,0.146-5.483-3.519-7.673-5.393c-4.603-3.935-9.881-8.082-14.324-12.011c-1.713-1.517-6.233-4.478-6.138-7.109
		c0.084-2.323,2.715-3.504,4.604-2.207C61.998,207.072,68.949,213.005,76.266,219.156z M51.932,205.864
		c0.026,0.021,2.22,1.957,4.919,4.34c2.243,1.98,16.871,14.797,17.454,15.313c3.703,3.794,5.359,1.007,5.583,0.486
		c0.26-0.604,0.097-1.144-0.163-1.578c-0.258-0.43-1.367-1.696-1.733-2.082c-1.04-1.09-2.308-2.152-3.26-2.943
		c-2.229-1.852-4.713-3.812-6.905-5.639c-5.189-4.321-9.854-8.429-14.067-11.032c-1.646-1.016-3.559,0.644-2.212,2.707
		C51.597,205.516,51.873,205.817,51.932,205.864z"/>
</g>
<g id="Layer_15">
	<g>
		<path d="M238.052,227.597c0,1.077-1.782,3.729-5.346,7.957h-0.746c-0.553-0.221-0.898-1.036-1.036-2.445
			c-0.304-2.845-1.285-5.173-2.942-6.982c-1.656-1.809-3.646-2.715-5.967-2.715c-2.183,0-4.061,0.794-5.636,2.381
			s-2.362,3.483-2.362,5.691c0,1.601,0.5,3.318,1.5,5.153c1,1.835,3.589,4.745,7.771,8.729c4.18,3.984,6.862,7.157,8.052,9.52
			c1.188,2.362,1.782,4.606,1.782,6.733c0,4.918-2.135,9.249-6.402,12.992c-4.269,3.744-9.262,5.615-14.981,5.615
			c-4.724,0-8.619-1.099-11.686-3.295c-3.067-2.196-4.6-3.984-4.6-5.366c0-0.773,0.842-2.569,2.527-5.388
			c1.686-2.817,2.652-4.227,2.901-4.227c0.884,0,1.513,0.256,1.886,0.767c0.373,0.512,0.628,1.458,0.768,2.839
			c0.414,4.31,1.457,7.279,3.128,8.909c1.671,1.631,3.847,2.445,6.526,2.445c2.929,0,5.483-1.014,7.667-3.043
			c2.183-2.029,3.273-4.382,3.273-7.06c0-1.38-0.424-2.85-1.271-4.409c-0.848-1.56-3.236-4.214-7.169-7.962
			c-3.933-3.749-6.506-6.921-7.722-9.519c-1.216-2.597-1.823-5.124-1.823-7.584c0-4.281,1.616-8.219,4.849-11.811
			c3.231-3.591,7.527-5.387,12.888-5.387c4.061,0,7.438,0.933,10.132,2.797C236.705,224.8,238.052,226.354,238.052,227.597z"/>
		<path d="M283.222,270.033c-3.757,4.144-6.583,6.879-8.475,8.205c-1.894,1.326-3.766,1.989-5.615,1.989
			c-1.05,0-2.978-0.456-5.781-1.367c-2.805-0.912-4.925-1.368-6.361-1.368c-1.796,0-3.102,0.456-3.915,1.368
			c-0.815,0.911-1.348,1.367-1.597,1.367c-1.382,0-2.21-0.021-2.485-0.063c-0.276-0.041-0.415-0.145-0.415-0.311
			c0-0.608,2.361-3.798,7.086-9.573l14.297-17.404c-1.604,0.331-3.329,0.497-5.181,0.497c-2.486,0-5.056-0.415-7.708-1.243
			c-4.973,7.128-9.808,13.095-14.504,17.902h-0.952v-3.729c3.508-3.592,6.886-7.618,10.132-12.08s5.131-7.273,5.656-8.434
			c0.524-1.16,0.953-1.74,1.285-1.74c0.193,0,1.464,0.187,3.813,0.56c2.348,0.373,4.24,0.56,5.677,0.56
			c2.597,0,4.979-0.187,7.148-0.56c2.168-0.373,3.433-0.56,3.792-0.56c0.523,0,0.786,0.137,0.786,0.408
			c-0.021,1.009-2.255,4.183-6.7,9.52l-13.38,16.222c1.105-0.11,2.019-0.166,2.737-0.166c0.525,0,2.315,0.311,5.372,0.933
			c3.058,0.621,4.889,0.932,5.497,0.932c1.714,0,3.188-0.462,4.418-1.388c1.23-0.926,3.021-2.673,5.372-5.242V270.033
			L283.222,270.033z"/>
		<path d="M303.004,251.097c1.987-2.404,3.864-4.18,5.632-5.327c1.767-1.147,3.727-1.721,5.88-1.721
			c2.788,0,5.059,1.071,6.812,3.212c1.753,2.141,2.63,4.952,2.63,8.433c0,6.106-2.106,11.707-6.32,16.805
			c-4.214,5.097-8.794,7.646-13.74,7.646c-1.381,0-2.473-0.152-3.274-0.456c-0.801-0.305-1.851-1.009-3.149-2.114
			c-1.988,8.758-3.271,15.776-3.851,21.054l-10.524,1.863c1.961-12.93,4.461-26.024,7.501-39.286
			c-3.646,4.78-6.105,7.723-7.376,8.827h-0.953v-3.729c5.249-5.663,9.573-12.543,12.972-20.638l9.367-1.7L303.004,251.097z
			 M298.211,273.262c1.438,2.378,3.027,3.566,4.77,3.566c2.792,0,5.26-2.12,7.403-6.361c2.143-4.24,3.214-8.377,3.214-12.411
			c0-2.127-0.436-3.847-1.305-5.159c-0.87-1.313-1.996-1.969-3.377-1.969c-1.077,0-2.209,0.483-3.396,1.451
			c-1.188,0.968-2.085,2.093-2.692,3.378c-0.606,1.284-1.297,3.529-2.07,6.734L298.211,273.262z"/>
		<path d="M373.521,270.033c-4.42,4.199-7.583,6.935-9.49,8.205c-1.907,1.271-3.729,1.906-5.47,1.906
			c-4.366,0-6.423-3.854-6.175-11.562c-2.764,3.951-5.313,6.865-7.646,8.743c-2.335,1.879-4.745,2.818-7.23,2.818
			c-2.432,0-4.496-1.14-6.195-3.419c-1.699-2.279-2.548-5.076-2.548-8.392c0-4.145,1.14-8.095,3.419-11.853
			c2.279-3.757,5.201-6.796,8.765-9.116c3.563-2.321,6.713-3.481,9.448-3.481c3.453,0,5.871,1.589,7.252,4.766l8.47-4.683h2.325
			l-3.654,12.143c-1.884,6.106-2.824,10.292-2.824,12.558c0,2.375,0.842,3.563,2.525,3.563c1.077,0,2.266-0.573,3.563-1.72
			c1.298-1.146,3.121-2.894,5.468-5.242L373.521,270.033L373.521,270.033z M343.187,272.312c2.762,0,5.366-2.355,7.812-7.065
			s3.668-9.056,3.668-13.033c0-1.547-0.347-2.756-1.036-3.626c-0.691-0.871-1.616-1.306-2.776-1.306
			c-2.763,0-5.381,2.349-7.853,7.045c-2.474,4.697-3.71,9.021-3.71,12.971c0,1.492,0.366,2.701,1.099,3.626
			C341.12,271.849,342.053,272.312,343.187,272.312z"/>
		<path d="M397.349,270.033c-3.481,3.454-6.492,6.002-9.034,7.646c-2.542,1.644-4.959,2.466-7.252,2.466
			c-2.376,0-4.303-1.001-5.781-3.005c-1.478-2.002-2.217-4.634-2.217-7.894c0-2.873,0.708-6.667,2.126-11.381l1.758-6.273
			l-3.18,0.166l1.328-6.506l3.939-0.166l3.892-12.93l11.069-2.272l-4.282,14.415l5.853-0.332l-1.368,6.382l-6.429,0.497l-2.76,9.286
			c-0.959,3.227-1.439,5.794-1.439,7.701c0,1.3,0.325,2.357,0.977,3.173c0.649,0.816,1.485,1.224,2.511,1.224
			c1.411,0,2.808-0.449,4.191-1.347c1.384-0.897,3.418-2.77,6.102-5.615v4.765H397.349z"/>
		<path d="M441.566,270.033c-3.646,3.454-6.699,6.002-9.158,7.646c-2.459,1.644-4.669,2.466-6.631,2.466
			c-2.182,0-3.859-0.87-5.035-2.61c-1.174-1.741-1.761-4.103-1.761-7.087c-3.039,3.343-5.761,5.809-8.163,7.397
			c-2.404,1.588-4.752,2.383-7.045,2.383c-2.101,0-3.785-0.87-5.057-2.611c-1.271-1.74-1.906-4.103-1.906-7.086
			c0-5.746,1.934-13.841,5.803-24.284l11.068-2.205c-4.552,13.243-6.832,21.742-6.842,25.497c0,2.651,0.993,3.976,2.982,3.976
			c1.438,0,3.218-1.166,5.347-3.501c2.128-2.335,3.452-4.372,3.979-6.113l5.429-17.653l11.28-2.281
			c-2.604,8.315-4.391,14.158-5.36,17.528c-0.97,3.371-1.454,5.732-1.454,7.088c0,2.598,0.886,3.896,2.654,3.896
			c1.438,0,3.566-1.312,6.387-3.937l3.483-3.273V270.033L441.566,270.033z"/>
		<path d="M468.959,270.033c-3.813,3.48-7.128,6.036-9.945,7.666c-2.818,1.63-5.525,2.445-8.123,2.445
			c-2.956,0-5.146-0.847-6.568-2.541c-1.423-1.693-2.299-3.621-2.631-5.784c-0.332-2.162-0.498-4.73-0.498-7.705l-7.79,3.087v-3.384
			l8.163-3.232c1.879-12.902,6.037-25.058,12.476-36.468l10.524-3.896c0.332-0.11,0.58-0.166,0.746-0.166
			c1.823,0,2.734,2.279,2.734,6.838c0,4.503-0.794,8.848-2.384,13.033c-1.588,4.186-4.536,9.068-8.848,14.648l8.082-3.149v3.297
			l-12.848,5.09c-0.275,2.807-0.414,4.898-0.414,6.273c0,2.229,0.449,4.038,1.348,5.428c0.896,1.389,2.064,2.083,3.501,2.083
			c1.547,0,3.198-0.573,4.952-1.72c1.754-1.146,4.262-3.35,7.521-6.609L468.959,270.033L468.959,270.033z M453.088,253.83
			c3.534-3.901,6.388-8.266,8.557-13.094c2.169-4.828,3.254-8.998,3.254-12.512c0-1.023-0.152-1.847-0.456-2.47
			c-0.305-0.622-0.689-0.934-1.161-0.934c-0.746,0-2.017,1.972-3.813,5.914S455.546,242.375,453.088,253.83z"/>
		<path d="M513.217,270.033c-4.42,4.199-7.582,6.935-9.488,8.205s-3.73,1.906-5.471,1.906c-4.365,0-6.425-3.854-6.176-11.562
			c-2.763,3.951-5.312,6.865-7.646,8.743c-2.336,1.879-4.745,2.818-7.232,2.818c-2.431,0-4.495-1.14-6.194-3.419
			c-1.698-2.279-2.548-5.076-2.548-8.392c0-4.145,1.14-8.095,3.419-11.853c2.278-3.757,5.2-6.796,8.765-9.116
			c3.563-2.321,6.714-3.481,9.448-3.481c3.453,0,5.871,1.589,7.252,4.766l8.471-4.683h2.324l-3.654,12.143
			c-1.883,6.106-2.824,10.292-2.824,12.558c0,2.375,0.843,3.563,2.525,3.563c1.078,0,2.266-0.573,3.563-1.72
			c1.297-1.147,3.12-2.894,5.467-5.242L513.217,270.033L513.217,270.033z M482.883,272.312c2.763,0,5.367-2.355,7.813-7.065
			c2.444-4.71,3.667-9.056,3.667-13.033c0-1.547-0.346-2.756-1.036-3.626c-0.69-0.871-1.615-1.306-2.775-1.306
			c-2.764,0-5.381,2.349-7.854,7.045c-2.474,4.697-3.709,9.021-3.709,12.971c0,1.492,0.365,2.701,1.099,3.626
			C480.817,271.849,481.75,272.312,482.883,272.312z"/>
		<path d="M567.09,270.033c-1.879,2.184-5.474,4.644-10.779,7.379c-1.105,7.348-3.551,13.031-7.334,17.051
			c-3.785,4.02-8.037,6.029-12.762,6.029c-2.265,0-4.039-0.525-5.324-1.576s-1.926-2.502-1.926-4.354
			c0-5.14,4.989-10.129,14.973-14.964c1.045-3.728,2.063-7.081,3.055-10.063c-1.741,2.514-4.27,4.738-7.584,6.672
			c-3.315,1.934-6.396,2.9-9.241,2.9c-4.642,0-8.503-2.01-11.582-6.029c-3.08-4.019-4.621-9.11-4.621-15.271
			c0-6.491,1.739-12.646,5.223-18.461c3.48-5.815,8.053-10.471,13.717-13.966c5.662-3.495,11.146-5.242,16.451-5.242
			c4.752,0,8.613,1.354,11.582,4.061c2.971,2.708,4.455,6.217,4.455,10.526c0,4.642-1.672,8.73-5.014,12.267
			c-3.345,3.536-7.185,5.305-11.521,5.305c-2.541,0-4.647-0.622-6.317-1.865c-1.673-1.243-2.509-2.776-2.509-4.6
			c0-1.105,0.324-2.086,0.976-2.942c0.647-0.856,1.399-1.285,2.258-1.285c0.828,0,1.244,0.484,1.244,1.45
			c0,0.857,0.315,1.521,0.953,1.989c0.635,0.471,1.367,0.705,2.194,0.705c2.211,0,4.33-1.513,6.361-4.538s3.047-6.264,3.047-9.718
			c0-2.431-0.789-4.413-2.362-5.946c-1.574-1.534-3.605-2.301-6.093-2.301c-3.729,0-7.342,1.658-10.836,4.974
			c-3.496,3.314-6.342,7.673-8.537,13.074c-2.196,5.401-3.295,10.533-3.295,15.396c0,4.476,0.968,8.032,2.898,10.671
			c1.934,2.639,4.502,3.957,7.705,3.957c5.412,0,10.588-3.826,15.531-11.479l7.784-1.119c0.968-0.138,1.451,0.096,1.451,0.7
			c0,0.275-0.375,1.463-1.121,3.563c-0.746,2.099-1.77,5.607-3.069,10.524c4.293-2.483,7.616-5.23,9.971-8.239L567.09,270.033
			L567.09,270.033z M542.972,283.791c-7.185,3.592-10.775,7.128-10.775,10.609c0,1.851,0.883,2.776,2.652,2.776
			C538.329,297.176,541.036,292.714,542.972,283.791z"/>
		<path d="M611.306,270.033c-4.42,4.199-7.582,6.935-9.488,8.205s-3.729,1.906-5.471,1.906c-4.365,0-6.424-3.854-6.176-11.562
			c-2.763,3.951-5.312,6.865-7.646,8.743c-2.336,1.879-4.746,2.818-7.231,2.818c-2.433,0-4.496-1.14-6.195-3.419
			c-1.699-2.279-2.549-5.076-2.549-8.392c0-4.145,1.141-8.095,3.42-11.853c2.278-3.757,5.201-6.796,8.764-9.116
			c3.564-2.321,6.715-3.481,9.449-3.481c3.453,0,5.871,1.589,7.252,4.766l8.471-4.683h2.324l-3.654,12.143
			c-1.883,6.106-2.823,10.292-2.823,12.558c0,2.375,0.842,3.563,2.524,3.563c1.078,0,2.267-0.573,3.563-1.72
			s3.121-2.894,5.467-5.242L611.306,270.033L611.306,270.033z M580.972,272.312c2.762,0,5.367-2.355,7.813-7.065
			c2.446-4.71,3.666-9.056,3.666-13.033c0-1.547-0.346-2.756-1.034-3.626c-0.691-0.871-1.615-1.306-2.777-1.306
			c-2.762,0-5.381,2.349-7.853,7.045c-2.473,4.697-3.709,9.021-3.709,12.971c0,1.492,0.365,2.701,1.099,3.626
			C578.907,271.849,579.84,272.312,580.972,272.312z"/>
		<path d="M624.031,245.749c1.906-0.497,3.826-0.905,5.761-1.223c1.934-0.318,3.094-0.477,3.479-0.477
			c0.275,0,0.414,0.11,0.414,0.331c0,0.415-0.109,0.842-0.33,1.284c-0.443,1.27-0.664,2.485-0.664,3.645
			c0.004,1.437,0.834,3.398,2.49,5.886c1.653,2.487,2.481,4.796,2.481,6.923c0,4.227-2.022,8.302-6.069,12.225
			c-4.05,3.924-8.24,5.885-12.578,5.885c-1.879,0-3.592-0.497-5.14-1.492c-1.547-0.994-2.319-2.058-2.319-3.19
			c0-0.663,0.768-1.92,2.301-3.771s2.631-2.776,3.293-2.776c0.885,0,1.672,1.133,2.363,3.398c0.688,2.266,1.879,3.397,3.563,3.397
			s3.267-0.78,4.744-2.341c1.479-1.562,2.217-3.24,2.217-5.036c0.002-1.741-0.938-4.062-2.815-6.962s-3.123-5.331-3.73-7.293
			c-3.205,5.167-7.268,10.457-12.184,15.872h-0.953v-3.729C617.122,259.092,621.681,252.241,624.031,245.749z"/>
		<path d="M669.572,270.033c-3.479,3.454-6.492,6.002-9.033,7.646c-2.543,1.644-4.959,2.466-7.252,2.466
			c-2.377,0-4.303-1.001-5.78-3.005c-1.479-2.002-2.218-4.634-2.218-7.894c0-2.873,0.709-6.667,2.128-11.381l1.758-6.273
			l-3.181,0.166l1.326-6.506l3.941-0.166l3.891-12.93l11.07-2.272l-4.283,14.415l5.852-0.332l-1.368,6.382l-6.429,0.497l-2.76,9.286
			c-0.961,3.227-1.438,5.794-1.438,7.701c0,1.3,0.323,2.357,0.975,3.173c0.65,0.816,1.486,1.224,2.512,1.224
			c1.41,0,2.81-0.449,4.191-1.347s3.416-2.77,6.1-5.615L669.572,270.033L669.572,270.033z"/>
		<path d="M700.529,270.033c-6.936,6.796-12.281,10.194-16.037,10.194c-1.686,0-3.108-0.712-4.27-2.135
			c-1.16-1.422-1.74-3.184-1.74-5.283c0-3.896,2.086-9.117,6.258-15.665c-2.045,1.051-4.283,1.782-6.713,2.197
			c-1.797,3.314-4.615,6.879-8.455,10.691h-0.953v-3.729c2.156-2.238,4.104-4.642,5.845-7.211c-2.377-1.05-3.564-2.611-3.564-4.683
			c0-2.127,0.727-4.399,2.176-6.817c1.451-2.417,3.447-3.626,5.988-3.626c2.154,0,3.232,1.105,3.232,3.315
			c0,1.74-0.621,4.227-1.865,7.459c4.586-0.497,8.592-4.005,12.018-10.525l3.771-0.166l-3.854,10.608
			c-1.604,4.476-2.639,7.521-3.106,9.138c-0.472,1.616-0.705,3.046-0.705,4.289c0,1.161,0.27,2.087,0.809,2.777
			c0.537,0.69,1.264,1.035,2.176,1.035c0.994,0,1.947-0.338,2.859-1.015c0.91-0.677,2.955-2.549,6.133-5.615L700.529,270.033
			L700.529,270.033z"/>
		<path d="M737.741,270.033c-1.407,1.243-2.774,2.12-4.102,2.631c-1.326,0.512-2.377,0.768-3.15,0.768
			c-1.987,0-3.965-0.773-5.926-2.321c-3.979,6.023-8.537,9.034-13.676,9.034c-3.205,0-5.802-1.202-7.789-3.605
			c-1.99-2.403-2.984-5.595-2.984-9.572c0-6.3,2.238-11.707,6.713-16.225c4.478-4.517,9.822-6.775,16.037-6.775
			c2.349,0,4.068,0.256,5.16,0.767c1.092,0.512,1.762,1.112,2.01,1.803s0.373,1.562,0.373,2.61c0,5.167-1.408,11.508-4.227,19.021
			c1.408,1.299,2.887,1.948,4.434,1.948c1.853,0,4.228-1.616,7.127-4.849V270.033L737.741,270.033z M724.068,246.868
			c-0.416-0.166-1.01-0.249-1.783-0.249c-3.592,0-6.401,1.879-8.432,5.636c-2.031,3.758-3.047,8.15-3.047,13.178
			c0,2.791,0.44,4.96,1.326,6.507c0.885,1.548,2.112,2.32,3.688,2.32c1.963,0,4.09-1.809,6.383-5.429
			c-2.598-3.26-3.896-6.769-3.896-10.525C718.306,253.885,720.226,250.073,724.068,246.868z"/>
	</g>
	<polygon points="140.834,246.542 168.793,221.958 167.043,220.875 164.293,222.25 152.625,231.458 147.668,235.833 142.418,240 
		139.625,243.417 139.418,245.042 140.125,246.333 	"/>
	<polygon points="128.334,237.042 156.293,212.458 154.543,211.375 151.793,212.75 140.125,221.958 135.168,226.333 129.918,230.5 
		127.125,233.917 126.918,235.542 127.625,236.833 	"/>
	<polygon points="116.209,227.292 144.168,202.708 142.418,201.625 139.668,203 128,212.208 123.043,216.583 117.793,220.75 
		115,224.167 114.793,225.792 115.5,227.083 	"/>
	<polygon points="54.384,246.708 26.425,222.125 28.175,221.042 30.925,222.417 42.592,231.625 47.551,236 52.801,240.167 
		55.592,243.583 55.801,245.208 55.092,246.5 	"/>
	<polygon points="66.884,237.208 38.925,212.625 40.676,211.542 43.426,212.917 55.092,222.125 60.051,226.5 65.301,230.667 
		68.092,234.083 68.301,235.708 67.592,237 	"/>
	<polygon points="79.009,227.458 51.051,202.875 52.801,201.792 55.551,203.167 67.217,212.375 72.176,216.75 77.426,220.917 
		80.217,224.333 80.426,225.958 79.717,227.25 	"/>
</g>
</svg>
